<svg xmlns="http://www.w3.org/2000/svg" xmlns:xlink="http://www.w3.org/1999/xlink" width="1920" zoomAndPan="magnify" viewBox="0 0 1440 809.999993" height="1080" preserveAspectRatio="xMidYMid meet" version="1.0"><defs><clipPath id="3459a72559"><path d="M 685.519531 371.136719 L 753 371.136719 L 753 438.636719 L 685.519531 438.636719 Z M 685.519531 371.136719 " clip-rule="nonzero"/></clipPath><clipPath id="301539a2e6"><path d="M 705.226562 410.46875 L 714.257812 410.46875 L 714.257812 416.554688 L 705.226562 416.554688 Z M 705.226562 410.46875 " clip-rule="nonzero"/></clipPath><clipPath id="4e0c4b37ca"><path d="M 709.738281 410.46875 C 707.246094 410.46875 705.226562 411.832031 705.226562 413.511719 C 705.226562 415.191406 707.246094 416.554688 709.738281 416.554688 C 712.230469 416.554688 714.25 415.191406 714.25 413.511719 C 714.25 411.832031 712.230469 410.46875 709.738281 410.46875 Z M 709.738281 410.46875 " clip-rule="nonzero"/></clipPath><clipPath id="472494db69"><path d="M 0.226562 0.46875 L 9.257812 0.46875 L 9.257812 6.554688 L 0.226562 6.554688 Z M 0.226562 0.46875 " clip-rule="nonzero"/></clipPath><clipPath id="b2fca0168b"><path d="M 4.738281 0.46875 C 2.246094 0.46875 0.226562 1.832031 0.226562 3.511719 C 0.226562 5.191406 2.246094 6.554688 4.738281 6.554688 C 7.230469 6.554688 9.25 5.191406 9.25 3.511719 C 9.25 1.832031 7.230469 0.46875 4.738281 0.46875 Z M 4.738281 0.46875 " clip-rule="nonzero"/></clipPath><clipPath id="0c4948df9c"><rect x="0" width="10" y="0" height="7"/></clipPath></defs><g clip-path="url(#3459a72559)"><path fill="#ffffff" d="M 742.5625 371.085938 C 739.960938 371.085938 737.355469 372.101562 735.324219 374.128906 L 734.976562 374.476562 L 749.464844 388.960938 L 749.796875 388.632812 C 753.859375 384.570312 753.859375 378.191406 749.796875 374.128906 C 747.765625 372.101562 745.160156 371.085938 742.5625 371.085938 Z M 728.957031 380.5 L 696.195312 413.257812 C 695.683594 413.773438 693.960938 416.5 692.421875 419.867188 C 689.488281 426.332031 687.535156 432.054688 685.503906 438.457031 C 690.90625 436.714844 697.824219 434.320312 704.058594 431.503906 C 707.425781 429.964844 710.183594 428.246094 710.699219 427.730469 L 743.453125 394.972656 L 728.957031 380.5 " fill-opacity="1" fill-rule="nonzero"/></g><g clip-path="url(#301539a2e6)"><g clip-path="url(#4e0c4b37ca)"><g transform="matrix(1, 0, 0, 1, 705, 410)"><g clip-path="url(#0c4948df9c)"><g clip-path="url(#472494db69)"><g clip-path="url(#b2fca0168b)"><path fill="#ffffff" d="M 0.226562 0.46875 L 9.257812 0.46875 L 9.257812 6.554688 L 0.226562 6.554688 Z M 0.226562 0.46875 " fill-opacity="1" fill-rule="nonzero"/></g></g></g></g></g></g></svg>
