<svg xmlns="http://www.w3.org/2000/svg" xmlns:xlink="http://www.w3.org/1999/xlink" width="1920" zoomAndPan="magnify" viewBox="0 0 1440 809.999993" height="1080" preserveAspectRatio="xMidYMid meet" version="1.0"><defs><clipPath id="a1f9915e5b"><path d="M 712.921875 404.417969 L 727.003906 404.417969 L 727.003906 418.5 L 712.921875 418.5 Z M 712.921875 404.417969 " clip-rule="nonzero"/></clipPath><clipPath id="a426b3fb98"><path d="M 719.960938 404.417969 C 716.074219 404.417969 712.921875 407.570312 712.921875 411.457031 C 712.921875 415.347656 716.074219 418.5 719.960938 418.5 C 723.851562 418.5 727.003906 415.347656 727.003906 411.457031 C 727.003906 407.570312 723.851562 404.417969 719.960938 404.417969 Z M 719.960938 404.417969 " clip-rule="nonzero"/></clipPath><clipPath id="41da1fbf15"><path d="M 0.921875 0.417969 L 15.003906 0.417969 L 15.003906 14.5 L 0.921875 14.5 Z M 0.921875 0.417969 " clip-rule="nonzero"/></clipPath><clipPath id="60abd337cb"><path d="M 7.960938 0.417969 C 4.074219 0.417969 0.921875 3.570312 0.921875 7.457031 C 0.921875 11.347656 4.074219 14.5 7.960938 14.5 C 11.851562 14.5 15.003906 11.347656 15.003906 7.457031 C 15.003906 3.570312 11.851562 0.417969 7.960938 0.417969 Z M 7.960938 0.417969 " clip-rule="nonzero"/></clipPath><clipPath id="5613b1f7ab"><rect x="0" width="16" y="0" height="15"/></clipPath><clipPath id="60ba8acbc2"><path d="M 700.257812 379.003906 L 740.007812 379.003906 L 740.007812 430 L 700.257812 430 Z M 700.257812 379.003906 " clip-rule="nonzero"/></clipPath></defs><g clip-path="url(#a1f9915e5b)"><g clip-path="url(#a426b3fb98)"><g transform="matrix(1, 0, 0, 1, 712, 404)"><g clip-path="url(#5613b1f7ab)"><g clip-path="url(#41da1fbf15)"><g clip-path="url(#60abd337cb)"><path fill="#000000" d="M 0.921875 0.417969 L 15.003906 0.417969 L 15.003906 14.5 L 0.921875 14.5 Z M 0.921875 0.417969 " fill-opacity="1" fill-rule="nonzero"/></g></g></g></g></g></g><g clip-path="url(#60ba8acbc2)"><path fill="#000000" d="M 740.007812 426.148438 C 740.007812 412.539062 731.105469 401.515625 720.132812 401.515625 C 709.164062 401.515625 700.257812 412.539062 700.257812 426.148438 C 700.257812 428.269531 709.164062 430 720.132812 430 C 731.105469 430 740.007812 428.269531 740.007812 426.148438 Z M 720.132812 379.003906 C 726.117188 379.003906 730.964844 383.824219 730.964844 389.773438 C 730.964844 395.726562 726.117188 400.546875 720.132812 400.546875 C 714.152344 400.546875 709.304688 395.726562 709.304688 389.773438 C 709.304688 383.824219 714.152344 379.003906 720.132812 379.003906 Z M 720.132812 379.003906 " fill-opacity="1" fill-rule="evenodd"/></g></svg>