<svg xmlns="http://www.w3.org/2000/svg" xmlns:xlink="http://www.w3.org/1999/xlink" width="1920" zoomAndPan="magnify" viewBox="0 0 1440 809.999993" height="1080" preserveAspectRatio="xMidYMid meet" version="1.0"><defs><clipPath id="e9e32b6e39"><path d="M 701.671875 404.417969 L 715.753906 404.417969 L 715.753906 418.5 L 701.671875 418.5 Z M 701.671875 404.417969 " clip-rule="nonzero"/></clipPath><clipPath id="e52055e750"><path d="M 708.710938 404.417969 C 704.824219 404.417969 701.671875 407.570312 701.671875 411.457031 C 701.671875 415.347656 704.824219 418.5 708.710938 418.5 C 712.601562 418.5 715.753906 415.347656 715.753906 411.457031 C 715.753906 407.570312 712.601562 404.417969 708.710938 404.417969 Z M 708.710938 404.417969 " clip-rule="nonzero"/></clipPath><clipPath id="5b418803e0"><path d="M 0.671875 0.417969 L 14.753906 0.417969 L 14.753906 14.5 L 0.671875 14.5 Z M 0.671875 0.417969 " clip-rule="nonzero"/></clipPath><clipPath id="4eeae0b28b"><path d="M 7.710938 0.417969 C 3.824219 0.417969 0.671875 3.570312 0.671875 7.457031 C 0.671875 11.347656 3.824219 14.5 7.710938 14.5 C 11.601562 14.5 14.753906 11.347656 14.753906 7.457031 C 14.753906 3.570312 11.601562 0.417969 7.710938 0.417969 Z M 7.710938 0.417969 " clip-rule="nonzero"/></clipPath><clipPath id="be7b91abb9"><rect x="0" width="15" y="0" height="15"/></clipPath><clipPath id="94592c344f"><path d="M 687.007812 356 L 752.257812 356 L 752.257812 452.636719 L 687.007812 452.636719 Z M 687.007812 356 " clip-rule="nonzero"/></clipPath></defs><g clip-path="url(#e9e32b6e39)"><g clip-path="url(#e52055e750)"><g transform="matrix(1, 0, 0, 1, 701, 404)"><g clip-path="url(#be7b91abb9)"><g clip-path="url(#5b418803e0)"><g clip-path="url(#4eeae0b28b)"><path fill="#000000" d="M 0.671875 0.417969 L 14.753906 0.417969 L 14.753906 14.5 L 0.671875 14.5 Z M 0.671875 0.417969 " fill-opacity="1" fill-rule="nonzero"/></g></g></g></g></g></g><g clip-path="url(#94592c344f)"><path fill="#000000" d="M 686.984375 388.546875 C 686.984375 370.601562 701.601562 356.054688 719.632812 356.054688 C 737.664062 356.054688 752.28125 370.601562 752.28125 388.546875 C 752.28125 405.8125 734.238281 426.9375 721.667969 438.78125 C 720.523438 439.859375 718.742188 439.859375 717.601562 438.78125 C 705.027344 426.9375 686.984375 405.8125 686.984375 388.546875 Z M 707.246094 431.292969 C 695.742188 432.960938 687.667969 436.878906 687.667969 441.453125 C 687.667969 447.539062 701.976562 452.472656 719.632812 452.472656 C 737.289062 452.472656 751.601562 447.539062 751.601562 441.453125 C 751.601562 436.878906 743.523438 432.957031 732.023438 431.292969 L 731.785156 431.550781 C 739.078125 433 743.988281 435.714844 743.988281 438.828125 C 743.988281 443.464844 733.082031 447.222656 719.632812 447.222656 C 706.183594 447.222656 695.28125 443.460938 695.28125 438.828125 C 695.28125 435.714844 700.191406 433 707.484375 431.550781 Z M 719.632812 373.660156 C 711.371094 373.660156 704.671875 380.324219 704.671875 388.546875 C 704.671875 396.769531 711.371094 403.4375 719.632812 403.4375 C 727.890625 403.4375 734.589844 396.773438 734.589844 388.546875 C 734.589844 380.324219 727.894531 373.660156 719.632812 373.660156 Z M 719.632812 373.660156 " fill-opacity="1" fill-rule="evenodd"/></g></svg>
