<svg xmlns="http://www.w3.org/2000/svg" xmlns:xlink="http://www.w3.org/1999/xlink" width="1920" zoomAndPan="magnify" viewBox="0 0 1440 809.999993" height="1080" preserveAspectRatio="xMidYMid meet" version="1.0"><defs><clipPath id="b0edacdf21"><path d="M 702 369 L 790.632812 369 L 790.632812 470 L 702 470 Z M 702 369 " clip-rule="nonzero"/></clipPath><clipPath id="a75c7e5478"><path d="M 679.171875 354.917969 L 693.253906 354.917969 L 693.253906 369 L 679.171875 369 Z M 679.171875 354.917969 " clip-rule="nonzero"/></clipPath><clipPath id="6d64384f00"><path d="M 686.210938 354.917969 C 682.324219 354.917969 679.171875 358.070312 679.171875 361.957031 C 679.171875 365.847656 682.324219 369 686.210938 369 C 690.101562 369 693.253906 365.847656 693.253906 361.957031 C 693.253906 358.070312 690.101562 354.917969 686.210938 354.917969 Z M 686.210938 354.917969 " clip-rule="nonzero"/></clipPath><clipPath id="d1d46b35d1"><path d="M 0.171875 0.917969 L 14.253906 0.917969 L 14.253906 15 L 0.171875 15 Z M 0.171875 0.917969 " clip-rule="nonzero"/></clipPath><clipPath id="3363fc2408"><path d="M 7.210938 0.917969 C 3.324219 0.917969 0.171875 4.070312 0.171875 7.957031 C 0.171875 11.847656 3.324219 15 7.210938 15 C 11.101562 15 14.253906 11.847656 14.253906 7.957031 C 14.253906 4.070312 11.101562 0.917969 7.210938 0.917969 Z M 7.210938 0.917969 " clip-rule="nonzero"/></clipPath><clipPath id="13d2b38d3c"><rect x="0" width="15" y="0" height="15"/></clipPath></defs><g clip-path="url(#b0edacdf21)"><path fill="#000000" d="M 790.367188 467.050781 L 781.3125 440.539062 C 781.765625 439.746094 782.195312 438.9375 782.601562 438.117188 C 783.007812 437.296875 783.394531 436.46875 783.753906 435.625 C 784.117188 434.785156 784.453125 433.933594 784.765625 433.074219 C 785.078125 432.214844 785.371094 431.347656 785.632812 430.46875 C 785.898438 429.59375 786.140625 428.710938 786.355469 427.820312 C 786.570312 426.933594 786.761719 426.039062 786.925781 425.136719 C 787.09375 424.238281 787.230469 423.332031 787.347656 422.425781 C 787.460938 421.515625 787.550781 420.605469 787.617188 419.691406 C 787.679688 418.777344 787.71875 417.863281 787.730469 416.949219 C 787.742188 416.035156 787.730469 415.121094 787.691406 414.203125 C 787.65625 413.289062 787.589844 412.378906 787.5 411.464844 C 787.414062 410.554688 787.296875 409.648438 787.15625 408.742188 C 787.015625 407.839844 786.851562 406.9375 786.660156 406.042969 C 786.472656 405.148438 786.257812 404.257812 786.015625 403.375 C 785.777344 402.492188 785.511719 401.617188 785.222656 400.746094 C 784.933594 399.878906 784.621094 399.019531 784.28125 398.167969 C 783.945312 397.316406 783.585938 396.476562 783.199219 395.644531 C 782.816406 394.816406 782.410156 393.996094 781.980469 393.1875 C 781.546875 392.378906 781.097656 391.585938 780.621094 390.800781 C 780.148438 390.019531 779.652344 389.25 779.132812 388.496094 C 778.617188 387.742188 778.078125 387 777.519531 386.277344 C 776.960938 385.550781 776.382812 384.84375 775.78125 384.152344 C 775.183594 383.457031 774.566406 382.785156 773.929688 382.125 C 773.292969 381.46875 772.640625 380.828125 771.96875 380.207031 C 771.296875 379.585938 770.605469 378.984375 769.902344 378.402344 C 769.195312 377.820312 768.472656 377.257812 767.738281 376.714844 C 767 376.175781 766.25 375.652344 765.480469 375.152344 C 764.714844 374.652344 763.9375 374.175781 763.144531 373.71875 C 762.351562 373.261719 761.546875 372.828125 760.726562 372.417969 C 759.910156 372.007812 759.082031 371.617188 758.242188 371.253906 C 757.40625 370.886719 756.554688 370.546875 755.699219 370.230469 C 754.839844 369.914062 753.972656 369.621094 753.097656 369.351562 C 753.582031 370.414062 754.03125 371.488281 754.449219 372.578125 C 754.867188 373.667969 755.25 374.773438 755.597656 375.886719 C 755.945312 377 756.261719 378.121094 756.539062 379.253906 C 756.820312 380.390625 757.066406 381.53125 757.273438 382.675781 C 757.484375 383.824219 757.65625 384.980469 757.796875 386.136719 C 757.933594 387.296875 758.035156 388.460938 758.105469 389.625 C 758.171875 390.789062 758.203125 391.957031 758.195312 393.125 C 758.191406 394.289062 758.152344 395.457031 758.074219 396.621094 C 757.996094 397.785156 757.886719 398.945312 757.738281 400.105469 C 757.589844 401.261719 757.40625 402.414062 757.1875 403.5625 C 756.964844 404.707031 756.710938 405.84375 756.421875 406.976562 C 756.132812 408.105469 755.808594 409.226562 755.453125 410.339844 C 755.09375 411.449219 754.703125 412.546875 754.277344 413.632812 C 753.851562 414.722656 753.390625 415.792969 752.898438 416.851562 C 752.40625 417.910156 751.882812 418.953125 751.328125 419.976562 C 750.769531 421.003906 750.183594 422.011719 749.566406 423 C 748.945312 423.992188 748.300781 424.960938 747.621094 425.910156 C 746.945312 426.859375 746.238281 427.789062 745.5 428.695312 C 744.765625 429.601562 744.003906 430.484375 743.214844 431.34375 C 742.425781 432.203125 741.609375 433.035156 740.769531 433.847656 C 739.929688 434.65625 739.066406 435.4375 738.175781 436.191406 C 737.285156 436.949219 736.375 437.675781 735.441406 438.375 C 734.507812 439.074219 733.554688 439.746094 732.578125 440.386719 C 731.605469 441.027344 730.609375 441.636719 729.597656 442.214844 C 728.585938 442.796875 727.554688 443.34375 726.507812 443.859375 C 725.464844 444.375 724.402344 444.859375 723.328125 445.308594 C 722.25 445.757812 721.160156 446.175781 720.058594 446.558594 C 718.957031 446.941406 717.847656 447.292969 716.722656 447.605469 C 715.597656 447.921875 714.46875 448.199219 713.328125 448.445312 C 712.1875 448.691406 711.039062 448.898438 709.886719 449.074219 C 708.734375 449.25 707.574219 449.386719 706.414062 449.488281 C 705.253906 449.59375 704.089844 449.660156 702.921875 449.691406 C 703.84375 450.675781 704.800781 451.621094 705.800781 452.527344 C 706.800781 453.433594 707.832031 454.296875 708.902344 455.117188 C 709.972656 455.9375 711.074219 456.710938 712.207031 457.441406 C 713.339844 458.171875 714.503906 458.855469 715.691406 459.488281 C 716.882812 460.121094 718.097656 460.707031 719.332031 461.238281 C 720.570312 461.773438 721.828125 462.253906 723.105469 462.683594 C 724.382812 463.113281 725.675781 463.492188 726.984375 463.8125 C 728.292969 464.136719 729.613281 464.40625 730.945312 464.621094 C 732.273438 464.835938 733.613281 464.992188 734.957031 465.097656 C 736.300781 465.203125 737.644531 465.25 738.992188 465.242188 C 740.339844 465.234375 741.6875 465.171875 743.027344 465.054688 C 744.371094 464.9375 745.707031 464.765625 747.035156 464.535156 C 748.363281 464.308594 749.679688 464.023438 750.984375 463.6875 C 752.289062 463.351562 753.578125 462.960938 754.851562 462.519531 C 756.125 462.074219 757.378906 461.578125 758.609375 461.035156 C 759.839844 460.488281 761.046875 459.890625 762.230469 459.242188 L 788.046875 469.285156 C 788.371094 469.410156 788.699219 469.433594 789.035156 469.367188 C 789.375 469.296875 789.667969 469.144531 789.914062 468.90625 C 790.164062 468.664062 790.328125 468.378906 790.410156 468.042969 C 790.492188 467.710938 790.476562 467.378906 790.367188 467.050781 Z M 790.367188 467.050781 " fill-opacity="1" fill-rule="nonzero"/></g><path fill="#000000" d="M 750.363281 392.835938 C 750.363281 391.898438 750.332031 390.960938 750.273438 390.023438 C 750.214844 389.089844 750.132812 388.152344 750.019531 387.222656 C 749.910156 386.289062 749.773438 385.363281 749.605469 384.4375 C 749.441406 383.515625 749.25 382.597656 749.035156 381.683594 C 748.816406 380.769531 748.574219 379.863281 748.304688 378.964844 C 748.035156 378.066406 747.742188 377.175781 747.421875 376.292969 C 747.101562 375.414062 746.753906 374.539062 746.382812 373.679688 C 746.011719 372.816406 745.617188 371.964844 745.199219 371.125 C 744.78125 370.285156 744.335938 369.460938 743.871094 368.648438 C 743.402344 367.832031 742.914062 367.03125 742.398438 366.246094 C 741.886719 365.460938 741.351562 364.691406 740.792969 363.9375 C 740.238281 363.183594 739.660156 362.445312 739.058594 361.722656 C 738.460938 361 737.839844 360.296875 737.199219 359.609375 C 736.558594 358.925781 735.902344 358.257812 735.222656 357.609375 C 734.542969 356.960938 733.847656 356.335938 733.132812 355.726562 C 732.417969 355.117188 731.6875 354.53125 730.941406 353.964844 C 730.191406 353.398438 729.429688 352.855469 728.648438 352.335938 C 727.867188 351.8125 727.074219 351.3125 726.265625 350.835938 C 725.460938 350.359375 724.636719 349.910156 723.804688 349.480469 C 722.96875 349.050781 722.125 348.644531 721.265625 348.265625 C 720.410156 347.886719 719.542969 347.53125 718.664062 347.199219 C 717.785156 346.871094 716.898438 346.566406 716.003906 346.285156 C 715.109375 346.007812 714.207031 345.753906 713.296875 345.523438 C 712.386719 345.296875 711.472656 345.097656 710.550781 344.921875 C 709.628906 344.746094 708.703125 344.597656 707.773438 344.476562 C 706.84375 344.355469 705.910156 344.261719 704.976562 344.195312 C 704.039062 344.125 703.105469 344.085938 702.167969 344.070312 C 701.230469 344.058594 700.292969 344.070312 699.355469 344.109375 C 698.417969 344.152344 697.484375 344.21875 696.550781 344.3125 C 695.617188 344.40625 694.6875 344.527344 693.761719 344.671875 C 692.835938 344.820312 691.914062 344.996094 690.996094 345.195312 C 690.082031 345.394531 689.171875 345.621094 688.269531 345.875 C 687.363281 346.128906 686.46875 346.40625 685.582031 346.710938 C 684.695312 347.015625 683.816406 347.34375 682.949219 347.699219 C 682.082031 348.054688 681.222656 348.433594 680.378906 348.835938 C 679.53125 349.242188 678.699219 349.667969 677.875 350.121094 C 677.054688 350.574219 676.246094 351.046875 675.453125 351.546875 C 674.65625 352.046875 673.878906 352.566406 673.113281 353.109375 C 672.347656 353.652344 671.601562 354.21875 670.867188 354.804688 C 670.136719 355.390625 669.421875 356 668.722656 356.625 C 668.027344 357.253906 667.347656 357.902344 666.6875 358.566406 C 666.027344 359.234375 665.386719 359.917969 664.765625 360.621094 C 664.148438 361.324219 663.546875 362.046875 662.96875 362.785156 C 662.386719 363.523438 661.832031 364.277344 661.296875 365.046875 C 660.757812 365.816406 660.246094 366.601562 659.753906 367.402344 C 659.265625 368.203125 658.796875 369.015625 658.351562 369.839844 C 657.910156 370.667969 657.488281 371.507812 657.09375 372.355469 C 656.695312 373.207031 656.324219 374.070312 655.980469 374.941406 C 655.632812 375.8125 655.3125 376.695312 655.015625 377.585938 C 654.71875 378.476562 654.449219 379.375 654.207031 380.28125 C 653.960938 381.1875 653.746094 382.097656 653.554688 383.015625 C 653.359375 383.9375 653.195312 384.859375 653.058594 385.785156 C 652.917969 386.714844 652.808594 387.648438 652.722656 388.582031 C 652.636719 389.515625 652.578125 390.453125 652.546875 391.390625 C 652.515625 392.328125 652.511719 393.265625 652.535156 394.203125 C 652.558594 395.140625 652.605469 396.078125 652.683594 397.015625 C 652.757812 397.949219 652.863281 398.882812 652.992188 399.8125 C 653.121094 400.742188 653.277344 401.664062 653.460938 402.585938 C 653.644531 403.507812 653.855469 404.421875 654.089844 405.328125 C 654.328125 406.238281 654.585938 407.136719 654.875 408.03125 C 655.164062 408.925781 655.476562 409.808594 655.8125 410.683594 C 656.152344 411.558594 656.515625 412.425781 656.902344 413.277344 C 657.292969 414.132812 657.703125 414.976562 658.140625 415.804688 C 658.578125 416.636719 659.035156 417.453125 659.519531 418.257812 L 656.394531 427.421875 L 651.378906 442.160156 C 651.269531 442.484375 651.253906 442.816406 651.335938 443.152344 C 651.417969 443.484375 651.582031 443.773438 651.832031 444.011719 C 652.078125 444.25 652.371094 444.40625 652.710938 444.472656 C 653.046875 444.542969 653.378906 444.515625 653.699219 444.394531 L 668.0625 438.808594 L 676.957031 435.34375 C 683.140625 438.917969 689.789062 441.035156 696.902344 441.695312 C 698.394531 441.820312 699.910156 441.894531 701.441406 441.894531 C 703.046875 441.894531 704.648438 441.816406 706.242188 441.660156 C 707.839844 441.5 709.425781 441.265625 711 440.953125 C 712.574219 440.640625 714.125 440.25 715.660156 439.78125 C 717.195312 439.316406 718.707031 438.773438 720.1875 438.160156 C 721.667969 437.542969 723.117188 436.859375 724.53125 436.101562 C 725.945312 435.34375 727.320312 434.515625 728.652344 433.625 C 729.988281 432.730469 731.273438 431.773438 732.511719 430.753906 C 733.75 429.734375 734.9375 428.65625 736.070312 427.519531 C 737.203125 426.382812 738.28125 425.195312 739.296875 423.953125 C 740.3125 422.710938 741.265625 421.421875 742.15625 420.085938 C 743.042969 418.75 743.867188 417.371094 744.621094 415.957031 C 745.375 414.539062 746.058594 413.089844 746.667969 411.605469 C 747.28125 410.121094 747.820312 408.609375 748.28125 407.070312 C 748.746094 405.535156 749.132812 403.976562 749.441406 402.402344 C 749.753906 400.828125 749.984375 399.242188 750.136719 397.644531 C 750.292969 396.046875 750.367188 394.441406 750.363281 392.835938 Z M 707.589844 404.136719 C 707.589844 404.652344 707.492188 405.148438 707.292969 405.625 C 707.09375 406.101562 706.816406 406.523438 706.449219 406.886719 C 706.085938 407.253906 705.664062 407.535156 705.1875 407.730469 C 704.710938 407.929688 704.214844 408.027344 703.699219 408.027344 L 678.925781 408.027344 C 678.414062 408.019531 677.925781 407.914062 677.457031 407.714844 C 676.988281 407.511719 676.574219 407.230469 676.214844 406.867188 C 675.859375 406.5 675.582031 406.082031 675.390625 405.609375 C 675.195312 405.136719 675.097656 404.644531 675.097656 404.136719 L 675.097656 403.757812 C 675.097656 403.242188 675.199219 402.746094 675.394531 402.273438 C 675.59375 401.796875 675.875 401.375 676.238281 401.011719 C 676.605469 400.648438 677.023438 400.367188 677.5 400.171875 C 677.976562 399.976562 678.472656 399.878906 678.988281 399.878906 L 703.699219 399.878906 C 704.214844 399.878906 704.710938 399.976562 705.1875 400.171875 C 705.664062 400.367188 706.085938 400.648438 706.449219 401.011719 C 706.8125 401.375 707.09375 401.796875 707.292969 402.273438 C 707.492188 402.746094 707.589844 403.242188 707.589844 403.757812 Z M 726.304688 387.027344 C 726.304688 387.542969 726.207031 388.039062 726.007812 388.515625 C 725.8125 388.992188 725.53125 389.414062 725.167969 389.777344 C 724.800781 390.140625 724.382812 390.421875 723.90625 390.621094 C 723.429688 390.816406 722.933594 390.917969 722.417969 390.917969 L 678.109375 390.917969 C 677.59375 390.917969 677.097656 390.816406 676.621094 390.621094 C 676.144531 390.421875 675.726562 390.140625 675.359375 389.777344 C 674.996094 389.414062 674.714844 388.992188 674.515625 388.515625 C 674.320312 388.039062 674.222656 387.542969 674.222656 387.027344 L 674.222656 386.660156 C 674.226562 386.148438 674.324219 385.652344 674.523438 385.179688 C 674.722656 384.707031 675.003906 384.289062 675.367188 383.925781 C 675.734375 383.5625 676.152344 383.285156 676.628906 383.089844 C 677.101562 382.894531 677.597656 382.796875 678.109375 382.796875 L 722.417969 382.796875 C 722.933594 382.796875 723.429688 382.894531 723.90625 383.089844 C 724.382812 383.289062 724.800781 383.570312 725.167969 383.933594 C 725.53125 384.300781 725.8125 384.71875 726.007812 385.199219 C 726.207031 385.675781 726.304688 386.171875 726.304688 386.6875 Z M 726.304688 387.027344 " fill-opacity="1" fill-rule="nonzero"/><g clip-path="url(#a75c7e5478)"><g clip-path="url(#6d64384f00)"><g transform="matrix(1, 0, 0, 1, 679, 354)"><g clip-path="url(#13d2b38d3c)"><g clip-path="url(#d1d46b35d1)"><g clip-path="url(#3363fc2408)"><path fill="#000000" d="M 0.171875 0.917969 L 14.253906 0.917969 L 14.253906 15 L 0.171875 15 Z M 0.171875 0.917969 " fill-opacity="1" fill-rule="nonzero"/></g></g></g></g></g></g></svg>
