<svg xmlns="http://www.w3.org/2000/svg" xmlns:xlink="http://www.w3.org/1999/xlink" width="1920" zoomAndPan="magnify" viewBox="0 0 1440 809.999993" height="1080" preserveAspectRatio="xMidYMid meet" version="1.0"><defs><clipPath id="2878bbdd3f"><path d="M 714.976562 398.414062 L 724 398.414062 L 724 410.574219 L 714.976562 410.574219 Z M 714.976562 398.414062 " clip-rule="nonzero"/></clipPath><clipPath id="77e3b6f19f"><path d="M 719.488281 398.414062 C 716.996094 398.414062 714.976562 401.132812 714.976562 404.484375 C 714.976562 407.835938 716.996094 410.554688 719.488281 410.554688 C 721.980469 410.554688 724 407.835938 724 404.484375 C 724 401.132812 721.980469 398.414062 719.488281 398.414062 Z M 719.488281 398.414062 " clip-rule="nonzero"/></clipPath><clipPath id="d37d0f0014"><path d="M 0.976562 0.414062 L 10 0.414062 L 10 12.574219 L 0.976562 12.574219 Z M 0.976562 0.414062 " clip-rule="nonzero"/></clipPath><clipPath id="d13e6a1e71"><path d="M 5.488281 0.414062 C 2.996094 0.414062 0.976562 3.132812 0.976562 6.484375 C 0.976562 9.835938 2.996094 12.554688 5.488281 12.554688 C 7.980469 12.554688 10 9.835938 10 6.484375 C 10 3.132812 7.980469 0.414062 5.488281 0.414062 Z M 5.488281 0.414062 " clip-rule="nonzero"/></clipPath><clipPath id="b1ac4a5c7a"><rect x="0" width="10" y="0" height="13"/></clipPath><clipPath id="38d255f65f"><path d="M 685.195312 370.191406 L 753.445312 370.191406 L 753.445312 438.441406 L 685.195312 438.441406 Z M 685.195312 370.191406 " clip-rule="nonzero"/></clipPath></defs><g clip-path="url(#2878bbdd3f)"><g clip-path="url(#77e3b6f19f)"><g transform="matrix(1, 0, 0, 1, 714, 398)"><g clip-path="url(#b1ac4a5c7a)"><g clip-path="url(#d37d0f0014)"><g clip-path="url(#d13e6a1e71)"><path fill="#000000" d="M 0.976562 0.414062 L 10 0.414062 L 10 12.539062 L 0.976562 12.539062 Z M 0.976562 0.414062 " fill-opacity="1" fill-rule="nonzero"/></g></g></g></g></g></g><g clip-path="url(#38d255f65f)"><path fill="#0a0903" d="M 719.484375 370.191406 C 700.546875 370.191406 685.195312 385.542969 685.195312 404.480469 C 685.195312 423.417969 700.546875 438.769531 719.484375 438.769531 C 738.421875 438.769531 753.773438 423.417969 753.773438 404.480469 C 753.773438 385.542969 738.421875 370.191406 719.484375 370.191406 Z M 740.378906 406.472656 C 740.378906 407.21875 739.867188 407.871094 739.140625 408.054688 L 735.160156 409.050781 C 734.824219 410.203125 734.363281 411.300781 733.796875 412.332031 L 735.910156 415.855469 C 736.296875 416.496094 736.195312 417.320312 735.664062 417.847656 L 732.851562 420.664062 C 732.320312 421.191406 731.5 421.292969 730.855469 420.90625 L 727.335938 418.796875 C 726.304688 419.363281 725.203125 419.820312 724.054688 420.15625 L 723.058594 424.140625 C 722.875 424.867188 722.222656 425.375 721.472656 425.375 L 717.492188 425.375 C 716.746094 425.375 716.089844 424.867188 715.910156 424.140625 L 714.914062 420.15625 C 713.761719 419.820312 712.664062 419.363281 711.632812 418.796875 L 708.109375 420.90625 C 707.46875 421.292969 706.644531 421.191406 706.117188 420.664062 L 703.300781 417.847656 C 702.773438 417.320312 702.671875 416.496094 703.054688 415.855469 L 705.167969 412.332031 C 704.601562 411.300781 704.144531 410.203125 703.808594 409.050781 L 699.824219 408.054688 C 699.097656 407.871094 698.589844 407.21875 698.589844 406.472656 L 698.589844 402.492188 C 698.589844 401.742188 699.097656 401.089844 699.824219 400.90625 L 703.808594 399.910156 C 704.144531 398.757812 704.601562 397.660156 705.167969 396.628906 L 703.054688 393.105469 C 702.671875 392.464844 702.773438 391.644531 703.300781 391.113281 L 706.117188 388.296875 C 706.644531 387.769531 707.46875 387.667969 708.109375 388.054688 L 711.632812 390.167969 C 712.664062 389.597656 713.761719 389.140625 714.914062 388.804688 L 715.910156 384.824219 C 716.089844 384.09375 716.742188 383.585938 717.492188 383.585938 L 721.472656 383.585938 C 722.222656 383.585938 722.875 384.09375 723.058594 384.824219 L 724.054688 388.804688 C 725.203125 389.140625 726.304688 389.597656 727.335938 390.167969 L 730.855469 388.054688 C 731.5 387.667969 732.320312 387.769531 732.851562 388.296875 L 735.664062 391.113281 C 736.195312 391.644531 736.296875 392.464844 735.910156 393.105469 L 733.796875 396.628906 C 734.363281 397.660156 734.824219 398.757812 735.160156 399.910156 L 739.140625 400.90625 C 739.867188 401.089844 740.378906 401.742188 740.378906 402.492188 Z M 740.378906 406.472656 " fill-opacity="1" fill-rule="nonzero"/></g><path fill="#0a0903" d="M 726.011719 404.480469 C 726.011719 404.910156 725.972656 405.335938 725.886719 405.753906 C 725.804688 406.175781 725.679688 406.582031 725.515625 406.980469 C 725.351562 407.375 725.152344 407.75 724.914062 408.109375 C 724.675781 408.464844 724.402344 408.792969 724.101562 409.097656 C 723.796875 409.402344 723.46875 409.671875 723.109375 409.910156 C 722.753906 410.148438 722.378906 410.347656 721.980469 410.511719 C 721.585938 410.675781 721.179688 410.800781 720.757812 410.886719 C 720.335938 410.96875 719.914062 411.011719 719.484375 411.011719 C 719.054688 411.011719 718.628906 410.96875 718.210938 410.886719 C 717.789062 410.800781 717.382812 410.675781 716.984375 410.511719 C 716.589844 410.347656 716.210938 410.148438 715.855469 409.910156 C 715.5 409.671875 715.167969 409.402344 714.867188 409.097656 C 714.5625 408.792969 714.292969 408.464844 714.054688 408.109375 C 713.816406 407.75 713.613281 407.375 713.449219 406.980469 C 713.285156 406.582031 713.164062 406.175781 713.078125 405.753906 C 712.996094 405.335938 712.953125 404.910156 712.953125 404.480469 C 712.953125 404.050781 712.996094 403.628906 713.078125 403.207031 C 713.164062 402.785156 713.285156 402.378906 713.449219 401.980469 C 713.613281 401.585938 713.816406 401.210938 714.054688 400.851562 C 714.292969 400.496094 714.5625 400.167969 714.867188 399.863281 C 715.167969 399.558594 715.5 399.289062 715.855469 399.050781 C 716.210938 398.8125 716.589844 398.613281 716.984375 398.449219 C 717.382812 398.285156 717.789062 398.160156 718.210938 398.078125 C 718.628906 397.992188 719.054688 397.949219 719.484375 397.949219 C 719.914062 397.949219 720.335938 397.992188 720.757812 398.078125 C 721.179688 398.160156 721.585938 398.285156 721.980469 398.449219 C 722.378906 398.613281 722.753906 398.8125 723.109375 399.050781 C 723.46875 399.289062 723.796875 399.558594 724.101562 399.863281 C 724.402344 400.167969 724.675781 400.496094 724.914062 400.851562 C 725.152344 401.210938 725.351562 401.585938 725.515625 401.980469 C 725.679688 402.378906 725.804688 402.785156 725.886719 403.207031 C 725.972656 403.628906 726.011719 404.050781 726.011719 404.480469 Z M 726.011719 404.480469 " fill-opacity="1" fill-rule="nonzero"/></svg>
