<svg xmlns="http://www.w3.org/2000/svg" xmlns:xlink="http://www.w3.org/1999/xlink" width="1920" zoomAndPan="magnify" viewBox="0 0 1440 809.999993" height="1080" preserveAspectRatio="xMidYMid meet" version="1.0"><defs><clipPath id="fbf067b963"><path d="M 662 422 L 687 422 L 687 455.160156 L 662 455.160156 Z M 662 422 " clip-rule="nonzero"/></clipPath><clipPath id="9d0fa4c55d"><path d="M 727.75 372.914062 L 731.5 372.914062 L 731.5 377.96875 L 727.75 377.96875 Z M 727.75 372.914062 " clip-rule="nonzero"/></clipPath><clipPath id="fe6bb798fa"><path d="M 729.625 372.914062 C 728.585938 372.914062 727.75 374.042969 727.75 375.4375 C 727.75 376.832031 728.585938 377.960938 729.625 377.960938 C 730.660156 377.960938 731.5 376.832031 731.5 375.4375 C 731.5 374.042969 730.660156 372.914062 729.625 372.914062 Z M 729.625 372.914062 " clip-rule="nonzero"/></clipPath><clipPath id="a4ea00e956"><path d="M 0.75 0.914062 L 4.5 0.914062 L 4.5 5.96875 L 0.75 5.96875 Z M 0.75 0.914062 " clip-rule="nonzero"/></clipPath><clipPath id="4b24c83826"><path d="M 2.625 0.914062 C 1.585938 0.914062 0.75 2.042969 0.75 3.4375 C 0.75 4.832031 1.585938 5.960938 2.625 5.960938 C 3.660156 5.960938 4.5 4.832031 4.5 3.4375 C 4.5 2.042969 3.660156 0.914062 2.625 0.914062 Z M 2.625 0.914062 " clip-rule="nonzero"/></clipPath><clipPath id="57aae703f7"><rect x="0" width="5" y="0" height="6"/></clipPath></defs><path fill="#27a279" d="M 774.421875 395.078125 C 774.332031 395.078125 774.246094 395.074219 774.160156 395.0625 C 773.039062 394.917969 772.253906 393.894531 772.398438 392.777344 C 773.984375 380.496094 765.664062 369.207031 753.847656 367.605469 C 752.730469 367.457031 751.945312 366.421875 752.097656 365.308594 C 752.25 364.191406 753.28125 363.417969 754.394531 363.558594 C 768.417969 365.460938 778.3125 378.800781 776.4375 393.304688 C 776.3125 394.332031 775.429688 395.078125 774.421875 395.078125 Z M 774.421875 395.078125 " fill-opacity="1" fill-rule="nonzero"/><path fill="#27a279" d="M 765.671875 393.890625 C 765.542969 393.890625 765.410156 393.878906 765.28125 393.847656 C 764.175781 393.632812 763.449219 392.566406 763.664062 391.460938 C 764.382812 387.742188 763.601562 384.160156 761.460938 381.378906 C 759.363281 378.632812 756.179688 376.980469 752.503906 376.714844 C 751.378906 376.632812 750.53125 375.660156 750.613281 374.535156 C 750.695312 373.410156 751.6875 372.550781 752.792969 372.644531 C 757.652344 372.992188 761.878906 375.214844 764.703125 378.890625 C 767.5625 382.613281 768.617188 387.355469 767.671875 392.230469 C 767.484375 393.210938 766.628906 393.890625 765.671875 393.890625 Z M 765.671875 393.890625 " fill-opacity="1" fill-rule="nonzero"/><g clip-path="url(#fbf067b963)"><path fill="#27a279" d="M 684.203125 455.003906 C 684.09375 455.003906 683.980469 455 683.867188 454.976562 C 669.902344 452.660156 660.402344 439.035156 662.691406 424.597656 C 662.875 423.484375 663.917969 422.714844 665.03125 422.898438 C 666.144531 423.074219 666.902344 424.121094 666.730469 425.234375 C 664.785156 437.464844 672.78125 448.996094 684.542969 450.949219 C 685.65625 451.136719 686.410156 452.1875 686.222656 453.300781 C 686.050781 454.296875 685.183594 455.003906 684.203125 455.003906 Z M 684.203125 455.003906 " fill-opacity="1" fill-rule="nonzero"/></g><path fill="#27a279" d="M 685.9375 445.945312 C 685.871094 445.945312 685.800781 445.941406 685.730469 445.933594 C 680.882812 445.441406 676.71875 443.101562 674.003906 439.34375 C 671.257812 435.539062 670.339844 430.773438 671.425781 425.917969 C 671.667969 424.816406 672.769531 424.128906 673.859375 424.371094 C 674.960938 424.613281 675.652344 425.703125 675.410156 426.808594 C 674.585938 430.5 675.265625 434.101562 677.316406 436.949219 C 679.339844 439.75 682.472656 441.5 686.140625 441.871094 C 687.265625 441.988281 688.085938 442.984375 687.96875 444.109375 C 687.859375 445.164062 686.972656 445.945312 685.9375 445.945312 Z M 685.9375 445.945312 " fill-opacity="1" fill-rule="nonzero"/><path fill="#27a279" d="M 717.515625 451.5 C 713.375 451.5 709.375 450.433594 705.300781 448.3125 C 699.476562 445.28125 696.316406 441.894531 690.171875 428.929688 C 687.335938 422.957031 686.824219 421.8125 685.777344 419.449219 C 685.171875 418.09375 684.386719 416.328125 682.871094 412.988281 C 680.632812 408.066406 679.027344 405.375 677.335938 402.523438 C 675.949219 400.191406 674.511719 397.785156 672.707031 394.097656 C 671.628906 391.902344 668.777344 386.066406 673.664062 383.324219 C 675.234375 382.445312 679.300781 381.046875 683.050781 387.125 C 684.953125 390.183594 686.015625 392.148438 686.953125 393.882812 C 688.042969 395.90625 688.9375 397.554688 690.769531 400.246094 C 690.496094 399.53125 690.21875 398.816406 689.949219 398.117188 C 688.640625 394.71875 687.164062 390.867188 685.769531 386.875 L 685.148438 385.082031 C 684.417969 382.953125 683.839844 381.273438 682.519531 377.886719 C 681.734375 375.867188 680.609375 372.070312 681.890625 369.222656 C 682.488281 367.894531 683.542969 366.921875 684.941406 366.410156 C 687.523438 365.460938 691.234375 365.644531 694.269531 371.914062 C 697.90625 379.410156 698.992188 382.003906 700.945312 386.988281 C 701.578125 388.601562 702.488281 390.636719 703.421875 392.566406 C 702.929688 390.433594 702.242188 387.753906 701.308594 384.4375 C 699.488281 378.902344 698.125 373.78125 697.03125 365.664062 C 696.214844 359.664062 697.953125 355.703125 701.667969 355.070312 C 707.875 353.980469 709.984375 360.84375 710.992188 364.132812 L 711.121094 364.542969 C 712.855469 370.105469 713.65625 373.28125 714.5 376.652344 C 714.925781 378.320312 715.363281 380.078125 715.949219 382.242188 C 716.164062 383.046875 716.433594 384.097656 716.726562 385.269531 C 716.839844 385.703125 716.964844 386.207031 717.105469 386.746094 C 717.0625 386.265625 717.023438 385.753906 716.972656 385.222656 C 716.265625 377.453125 716.164062 372.453125 716.601562 365.414062 C 717.085938 357.761719 720.875 356.59375 722.480469 356.449219 C 726.78125 356.085938 729.027344 360.394531 729.664062 364.589844 L 729.746094 365.113281 C 730.847656 372.382812 731.113281 374.105469 731.59375 382.410156 C 732.0625 390.429688 732.394531 394.527344 733.230469 399.167969 C 734.246094 404.8125 735.078125 407.78125 735.652344 409.34375 C 736.144531 407.824219 736.640625 405.710938 736.957031 404.355469 C 737.347656 402.707031 737.675781 401.28125 738.023438 400.285156 C 740.878906 392.121094 744.351562 388.984375 745.707031 388.011719 C 747.238281 386.914062 751.882812 384.664062 754.925781 387.359375 C 756.140625 388.4375 757.136719 390.351562 756.296875 392.507812 C 755.824219 393.710938 755.378906 394.769531 754.945312 395.796875 C 753.894531 398.277344 752.984375 400.425781 752.089844 403.8125 C 750.269531 410.722656 749.621094 414.863281 749.046875 418.515625 C 748.472656 422.15625 747.980469 425.300781 746.460938 429.855469 C 743.730469 438.054688 740.378906 443.652344 731.328125 447.96875 C 726.394531 450.324219 721.875 451.5 717.515625 451.5 Z M 676.511719 386.640625 C 676.109375 386.640625 675.828125 386.804688 675.664062 386.890625 C 674.578125 387.5 674.789062 389.066406 676.371094 392.3125 C 678.105469 395.847656 679.496094 398.1875 680.84375 400.441406 C 682.519531 403.261719 684.257812 406.175781 686.589844 411.300781 C 688.113281 414.652344 688.902344 416.429688 689.511719 417.789062 C 690.546875 420.132812 691.054688 421.261719 693.863281 427.179688 C 699.890625 439.886719 702.550781 442.269531 707.191406 444.6875 C 714.402344 448.445312 721.09375 448.324219 729.578125 444.277344 C 737.351562 440.566406 740.152344 435.886719 742.601562 428.558594 C 744.007812 424.324219 744.457031 421.476562 745.023438 417.878906 C 745.585938 414.3125 746.28125 409.875 748.15625 402.765625 C 749.121094 399.097656 750.125 396.71875 751.191406 394.203125 C 751.617188 393.207031 752.046875 392.179688 752.503906 391.019531 C 752.601562 390.769531 752.316406 390.492188 752.230469 390.410156 C 751.5 389.773438 749.222656 390.519531 748.097656 391.328125 C 747.277344 391.914062 744.425781 394.371094 741.890625 401.628906 C 741.613281 402.425781 741.289062 403.816406 740.941406 405.289062 C 739.585938 411.082031 738.691406 414.386719 736.191406 414.804688 C 733.101562 415.316406 731.328125 411.5625 729.21875 399.890625 C 728.339844 395.039062 728.003906 390.835938 727.523438 382.648438 C 727.054688 374.535156 726.792969 372.84375 725.710938 365.726562 L 725.632812 365.210938 C 725.441406 363.949219 724.507812 360.382812 722.851562 360.519531 C 721.742188 360.617188 720.875 362.695312 720.6875 365.675781 C 720.257812 372.5625 720.351562 377.226562 721.046875 384.855469 C 722.027344 395.566406 721.574219 398.621094 718.960938 399.085938 C 716.378906 399.554688 715.539062 397.234375 712.777344 386.269531 C 712.488281 385.128906 712.226562 384.097656 712.019531 383.308594 C 711.429688 381.117188 710.980469 379.347656 710.558594 377.65625 C 709.6875 374.203125 708.933594 371.222656 707.234375 365.769531 L 707.101562 365.339844 C 705.820312 361.203125 704.582031 358.71875 702.359375 359.101562 C 700.957031 359.335938 700.710938 362.386719 701.082031 365.117188 C 702.140625 372.933594 703.449219 377.859375 705.21875 383.253906 C 709.730469 399.300781 708.71875 400.738281 708.058594 401.6875 C 707.640625 402.285156 706.992188 402.664062 706.277344 402.71875 C 706.238281 402.71875 706.203125 402.726562 706.164062 402.726562 C 703.339844 402.726562 699.710938 395.007812 697.152344 388.484375 C 695.238281 383.605469 694.179688 381.070312 690.605469 373.699219 C 688.542969 369.449219 687.011719 370 686.355469 370.246094 C 685.984375 370.382812 685.769531 370.570312 685.621094 370.90625 C 685.148438 371.941406 685.429688 374.105469 686.328125 376.40625 C 687.679688 379.871094 688.269531 381.578125 689.019531 383.753906 L 689.632812 385.527344 C 691.007812 389.460938 692.472656 393.28125 693.773438 396.648438 C 697.585938 406.558594 698.492188 408.914062 696.058594 410.074219 C 694.984375 410.589844 693.515625 411.261719 688.210938 403.71875 C 685.695312 400.132812 684.617188 398.140625 683.371094 395.828125 C 682.460938 394.144531 681.425781 392.238281 679.628906 389.332031 C 678.257812 387.128906 677.207031 386.640625 676.511719 386.640625 Z M 676.511719 386.640625 " fill-opacity="1" fill-rule="nonzero"/><g clip-path="url(#9d0fa4c55d)"><g clip-path="url(#fe6bb798fa)"><g transform="matrix(1, 0, 0, 1, 727, 372)"><g clip-path="url(#57aae703f7)"><g clip-path="url(#a4ea00e956)"><g clip-path="url(#4b24c83826)"><path fill="#27a279" d="M 0.75 0.914062 L 4.5 0.914062 L 4.5 5.953125 L 0.75 5.953125 Z M 0.75 0.914062 " fill-opacity="1" fill-rule="nonzero"/></g></g></g></g></g></g></svg>