<svg xmlns="http://www.w3.org/2000/svg" xmlns:xlink="http://www.w3.org/1999/xlink" width="1920" zoomAndPan="magnify" viewBox="0 0 1440 809.999993" height="1080" preserveAspectRatio="xMidYMid meet" version="1.0"><defs><g/><clipPath id="60fa33fe5b"><rect x="0" width="221" y="0" height="115"/></clipPath><clipPath id="922d274dbf"><path d="M 547.167969 391.988281 L 566.054688 391.988281 L 566.054688 410.875 L 547.167969 410.875 Z M 547.167969 391.988281 " clip-rule="nonzero"/></clipPath><clipPath id="4c837dcf23"><path d="M 556.613281 391.988281 C 551.398438 391.988281 547.167969 396.21875 547.167969 401.433594 C 547.167969 406.648438 551.398438 410.875 556.613281 410.875 C 561.828125 410.875 566.054688 406.648438 566.054688 401.433594 C 566.054688 396.21875 561.828125 391.988281 556.613281 391.988281 Z M 556.613281 391.988281 " clip-rule="nonzero"/></clipPath><clipPath id="c8c077a037"><path d="M 0.167969 0.988281 L 19.054688 0.988281 L 19.054688 19.875 L 0.167969 19.875 Z M 0.167969 0.988281 " clip-rule="nonzero"/></clipPath><clipPath id="8d419b462f"><path d="M 9.613281 0.988281 C 4.398438 0.988281 0.167969 5.21875 0.167969 10.433594 C 0.167969 15.648438 4.398438 19.875 9.613281 19.875 C 14.828125 19.875 19.054688 15.648438 19.054688 10.433594 C 19.054688 5.21875 14.828125 0.988281 9.613281 0.988281 Z M 9.613281 0.988281 " clip-rule="nonzero"/></clipPath><clipPath id="4896c5d776"><rect x="0" width="20" y="0" height="20"/></clipPath><clipPath id="f33e147d16"><path d="M 566.054688 410.875 L 584.941406 410.875 L 584.941406 429.761719 L 566.054688 429.761719 Z M 566.054688 410.875 " clip-rule="nonzero"/></clipPath><clipPath id="d92cf3588a"><path d="M 575.5 410.875 C 570.285156 410.875 566.054688 415.101562 566.054688 420.320312 C 566.054688 425.535156 570.285156 429.761719 575.5 429.761719 C 580.714844 429.761719 584.941406 425.535156 584.941406 420.320312 C 584.941406 415.101562 580.714844 410.875 575.5 410.875 Z M 575.5 410.875 " clip-rule="nonzero"/></clipPath><clipPath id="c421b42191"><path d="M 0.0546875 0.875 L 18.941406 0.875 L 18.941406 19.761719 L 0.0546875 19.761719 Z M 0.0546875 0.875 " clip-rule="nonzero"/></clipPath><clipPath id="2b94cc4b83"><path d="M 9.5 0.875 C 4.285156 0.875 0.0546875 5.101562 0.0546875 10.320312 C 0.0546875 15.535156 4.285156 19.761719 9.5 19.761719 C 14.714844 19.761719 18.941406 15.535156 18.941406 10.320312 C 18.941406 5.101562 14.714844 0.875 9.5 0.875 Z M 9.5 0.875 " clip-rule="nonzero"/></clipPath><clipPath id="85208909d4"><rect x="0" width="19" y="0" height="20"/></clipPath><clipPath id="5793209735"><rect x="0" width="33" y="0" height="64"/></clipPath></defs><g transform="matrix(1, 0, 0, 1, 609, 347)"><g clip-path="url(#60fa33fe5b)"><g fill="#0a0903" fill-opacity="1"><g transform="translate(0.343453, 90.457507)"><g><path d="M 29.921875 -56.859375 C 36.390625 -56.859375 41.519531 -54.726562 45.3125 -50.46875 C 48.570312 -46.738281 50.203125 -42.394531 50.203125 -37.4375 C 50.203125 -32.59375 48.6875 -28.363281 45.65625 -24.75 C 41.863281 -20.320312 36.554688 -18.109375 29.734375 -18.109375 L 16.265625 -18.109375 L 16.265625 0 L 2.625 0 L 2.625 -56.859375 Z M 36.296875 -32.625 C 36.878906 -33.320312 37.316406 -34.140625 37.609375 -35.078125 C 37.847656 -35.890625 37.96875 -36.675781 37.96875 -37.4375 C 37.96875 -38.195312 37.820312 -39.015625 37.53125 -39.890625 C 37.175781 -40.816406 36.707031 -41.628906 36.125 -42.328125 C 34.78125 -43.847656 32.710938 -44.609375 29.921875 -44.609375 L 16.265625 -44.609375 L 16.265625 -30.359375 L 29.734375 -30.359375 C 31.546875 -30.359375 33.0625 -30.617188 34.28125 -31.140625 C 35.101562 -31.609375 35.773438 -32.101562 36.296875 -32.625 Z M 36.296875 -32.625 "/></g></g></g><g fill="#0a0903" fill-opacity="1"><g transform="translate(53.17092, 90.457507)"><g><path d="M 14.875 -38.3125 C 15.863281 -41.113281 17.523438 -43.066406 19.859375 -44.171875 C 22.128906 -45.273438 25.539062 -45.828125 30.09375 -45.828125 L 30.09375 -33.328125 C 25.65625 -33.328125 21.953125 -31.8125 18.984375 -28.78125 C 16.242188 -26.09375 14.875 -23.144531 14.875 -19.9375 L 14.875 0 L 2.625 0 L 2.625 -45.046875 L 14.875 -45.046875 Z M 14.875 -38.3125 "/></g></g></g><g fill="#0a0903" fill-opacity="1"><g transform="translate(82.470809, 90.457507)"><g><path d="M 23.359375 -45.046875 C 29.597656 -45.109375 34.90625 -42.953125 39.28125 -38.578125 C 43.707031 -34.140625 45.921875 -28.832031 45.921875 -22.65625 C 45.984375 -16.414062 43.828125 -11.109375 39.453125 -6.734375 C 35.078125 -2.304688 29.796875 -0.0625 23.609375 0 C 17.367188 0.0625 12.035156 -2.09375 7.609375 -6.46875 C 3.179688 -10.84375 0.96875 -16.148438 0.96875 -22.390625 C 0.90625 -28.628906 3.0625 -33.9375 7.4375 -38.3125 C 11.8125 -42.738281 17.117188 -44.984375 23.359375 -45.046875 Z M 31.3125 -14.6875 C 33.46875 -16.851562 34.546875 -19.476562 34.546875 -22.5625 C 34.546875 -25.59375 33.4375 -28.21875 31.21875 -30.4375 C 29.007812 -32.539062 26.390625 -33.59375 23.359375 -33.59375 C 20.328125 -33.59375 17.726562 -32.515625 15.5625 -30.359375 C 13.40625 -28.078125 12.328125 -25.453125 12.328125 -22.484375 C 12.328125 -19.453125 13.4375 -16.828125 15.65625 -14.609375 C 17.8125 -12.453125 20.4375 -11.375 23.53125 -11.375 C 26.675781 -11.488281 29.269531 -12.59375 31.3125 -14.6875 Z M 31.3125 -14.6875 "/></g></g></g><g fill="#0a0903" fill-opacity="1"><g transform="translate(125.76464, 90.457507)"><g><path d="M 39.359375 0 L 25.28125 -14 L 11.28125 0 L 2.625 -8.65625 L 16.625 -22.65625 L 2.625 -36.734375 L 11.28125 -45.390625 L 25.28125 -31.3125 L 39.359375 -45.390625 L 48.015625 -36.734375 L 33.9375 -22.65625 L 48.015625 -8.65625 Z M 39.359375 0 "/></g></g></g><g fill="#0a0903" fill-opacity="1"><g transform="translate(172.819382, 90.457507)"><g><path d="M 45.046875 -45.140625 L 27.296875 2.015625 C 25.367188 6.679688 22.304688 10.382812 18.109375 13.125 C 13.910156 15.863281 9.332031 17.175781 4.375 17.0625 L 4.375 4.8125 C 6.175781 4.863281 7.984375 4.484375 9.796875 3.671875 C 12.359375 2.503906 14.28125 0.664062 15.5625 -1.84375 L 18.015625 -8.578125 L 2.625 -45.140625 L 16.09375 -45.140625 L 24.234375 -25.453125 L 31.484375 -45.140625 Z M 45.046875 -45.140625 "/></g></g></g></g></g><g clip-path="url(#922d274dbf)"><g clip-path="url(#4c837dcf23)"><g transform="matrix(1, 0, 0, 1, 547, 391)"><g clip-path="url(#4896c5d776)"><g clip-path="url(#c8c077a037)"><g clip-path="url(#8d419b462f)"><path fill="#0a0903" d="M 0.167969 0.988281 L 19.054688 0.988281 L 19.054688 19.875 L 0.167969 19.875 Z M 0.167969 0.988281 " fill-opacity="1" fill-rule="nonzero"/></g></g></g></g></g></g><g clip-path="url(#f33e147d16)"><g clip-path="url(#d92cf3588a)"><g transform="matrix(1, 0, 0, 1, 566, 410)"><g clip-path="url(#85208909d4)"><g clip-path="url(#c421b42191)"><g clip-path="url(#2b94cc4b83)"><path fill="#0a0903" d="M 0.0546875 0.875 L 18.941406 0.875 L 18.941406 19.761719 L 0.0546875 19.761719 Z M 0.0546875 0.875 " fill-opacity="1" fill-rule="nonzero"/></g></g></g></g></g></g><path stroke-linecap="round" transform="matrix(0.531578, 0.529079, -0.529079, 0.531578, 574.626481, 389.722325)" fill="none" stroke-linejoin="miter" d="M 3.358358 10.656763 C 8.709491 -0.261354 14.056902 -0.219295 19.407957 10.78296 " stroke="#a48208" stroke-width="5" stroke-opacity="1" stroke-miterlimit="4"/><path stroke-linecap="round" transform="matrix(0.481398, 0.575114, -0.575114, 0.481398, 578.831929, 379.027676)" fill="none" stroke-linejoin="miter" d="M 3.342545 21.720566 C 14.508608 -3.953138 25.671085 -3.908044 36.833971 21.85919 " stroke="#0a0903" stroke-width="5" stroke-opacity="1" stroke-miterlimit="4"/><path stroke-linecap="round" transform="matrix(-0.531578, -0.529079, 0.529079, -0.531578, 554.402618, 430.412686)" fill="none" stroke-linejoin="miter" d="M 3.35472 10.657173 C 8.705853 -0.260945 14.06063 -0.218868 19.411685 10.783387 " stroke="#0a0903" stroke-width="5" stroke-opacity="1" stroke-miterlimit="4"/><path stroke-linecap="round" transform="matrix(-0.481398, -0.575114, 0.575114, -0.481398, 550.192299, 441.100006)" fill="none" stroke-linejoin="miter" d="M 3.34197 21.71871 C 14.508032 -3.954993 25.67051 -3.909899 36.83739 21.860677 " stroke="#a48208" stroke-width="5" stroke-opacity="1" stroke-miterlimit="4"/><path stroke-linecap="round" transform="matrix(-0.50744, -0.552273, 0.552273, -0.50744, 549.413307, 451.507053)" fill="none" stroke-linejoin="miter" d="M 3.349699 31.724984 C 20.502172 -7.288644 37.65216 -7.240114 54.803187 31.866738 " stroke="#0a0903" stroke-width="5" stroke-opacity="1" stroke-miterlimit="4"/><g transform="matrix(1, 0, 0, 1, 826, 373)"><g clip-path="url(#5793209735)"><g fill="#0a0903" fill-opacity="1"><g transform="translate(1.541115, 49.085816)"><g><path d="M 26.71875 -18.828125 L 26.71875 -11.96875 L 17.5 -11.96875 L 17.5 -2.796875 L 10.640625 -2.796875 L 10.640625 -11.96875 L 1.46875 -11.96875 L 1.46875 -18.828125 L 10.640625 -18.828125 L 10.640625 -28.046875 L 17.5 -28.046875 L 17.5 -18.828125 Z M 26.71875 -18.828125 "/></g></g></g></g></g><path stroke-linecap="round" transform="matrix(0.50744, 0.552273, -0.552273, 0.50744, 579.607705, 368.628928)" fill="none" stroke-linejoin="miter" d="M 3.349088 31.727103 C 20.501561 -7.286525 37.647714 -7.241519 54.798741 31.865333 " stroke="#a48208" stroke-width="5" stroke-opacity="1" stroke-miterlimit="4"/></svg>
