<svg xmlns="http://www.w3.org/2000/svg" xmlns:xlink="http://www.w3.org/1999/xlink" width="1920" zoomAndPan="magnify" viewBox="0 0 1440 809.999993" height="1080" preserveAspectRatio="xMidYMid meet" version="1.0"><defs><g/><clipPath id="13b88f94f7"><rect x="0" width="238" y="0" height="124"/></clipPath></defs><g transform="matrix(1, 0, 0, 1, 601, 343)"><g clip-path="url(#13b88f94f7)"><g fill="#0a0903" fill-opacity="1"><g transform="translate(0.928311, 96.988506)"><g><path d="M 32.078125 -60.953125 C 39.015625 -60.953125 44.515625 -58.671875 48.578125 -54.109375 C 52.078125 -50.109375 53.828125 -45.453125 53.828125 -40.140625 C 53.828125 -34.953125 52.203125 -30.421875 48.953125 -26.546875 C 44.890625 -21.785156 39.203125 -19.40625 31.890625 -19.40625 L 17.4375 -19.40625 L 17.4375 0 L 2.8125 0 L 2.8125 -60.953125 Z M 38.921875 -34.984375 C 39.546875 -35.734375 40.015625 -36.609375 40.328125 -37.609375 C 40.578125 -38.484375 40.703125 -39.328125 40.703125 -40.140625 C 40.703125 -40.953125 40.546875 -41.828125 40.234375 -42.765625 C 39.859375 -43.765625 39.359375 -44.640625 38.734375 -45.390625 C 37.296875 -47.015625 35.078125 -47.828125 32.078125 -47.828125 L 17.4375 -47.828125 L 17.4375 -32.546875 L 31.890625 -32.546875 C 33.828125 -32.546875 35.453125 -32.828125 36.765625 -33.390625 C 37.640625 -33.890625 38.359375 -34.421875 38.921875 -34.984375 Z M 38.921875 -34.984375 "/></g></g></g><g fill="#0a0903" fill-opacity="1"><g transform="translate(57.571628, 96.988506)"><g><path d="M 15.9375 -41.078125 C 17 -44.078125 18.78125 -46.171875 21.28125 -47.359375 C 23.726562 -48.546875 27.390625 -49.140625 32.265625 -49.140625 L 32.265625 -35.734375 C 27.515625 -35.734375 23.539062 -34.109375 20.34375 -30.859375 C 17.40625 -27.984375 15.9375 -24.820312 15.9375 -21.375 L 15.9375 0 L 2.8125 0 L 2.8125 -48.296875 L 15.9375 -48.296875 Z M 15.9375 -41.078125 "/></g></g></g><g fill="#0a0903" fill-opacity="1"><g transform="translate(88.987916, 96.988506)"><g><path d="M 25.046875 -48.296875 C 31.734375 -48.359375 37.421875 -46.046875 42.109375 -41.359375 C 46.859375 -36.609375 49.234375 -30.921875 49.234375 -24.296875 C 49.296875 -17.597656 46.984375 -11.90625 42.296875 -7.21875 C 37.609375 -2.46875 31.953125 -0.0625 25.328125 0 C 18.628906 0.0625 12.90625 -2.25 8.15625 -6.9375 C 3.40625 -11.625 1.03125 -17.316406 1.03125 -24.015625 C 0.96875 -30.703125 3.28125 -36.390625 7.96875 -41.078125 C 12.65625 -45.828125 18.347656 -48.234375 25.046875 -48.296875 Z M 33.578125 -15.75 C 35.890625 -18.0625 37.046875 -20.878906 37.046875 -24.203125 C 37.046875 -27.453125 35.859375 -30.265625 33.484375 -32.640625 C 31.109375 -34.890625 28.296875 -36.015625 25.046875 -36.015625 C 21.785156 -36.015625 19 -34.859375 16.6875 -32.546875 C 14.375 -30.109375 13.21875 -27.296875 13.21875 -24.109375 C 13.21875 -20.847656 14.40625 -18.03125 16.78125 -15.65625 C 19.09375 -13.34375 21.910156 -12.1875 25.234375 -12.1875 C 28.609375 -12.3125 31.390625 -13.5 33.578125 -15.75 Z M 33.578125 -15.75 "/></g></g></g><g fill="#0a0903" fill-opacity="1"><g transform="translate(135.408961, 96.988506)"><g><path d="M 42.203125 0 L 27.109375 -15 L 12.09375 0 L 2.8125 -9.28125 L 17.8125 -24.296875 L 2.8125 -39.390625 L 12.09375 -48.671875 L 27.109375 -33.578125 L 42.203125 -48.671875 L 51.484375 -39.390625 L 36.390625 -24.296875 L 51.484375 -9.28125 Z M 42.203125 0 "/></g></g></g><g fill="#0a0903" fill-opacity="1"><g transform="translate(185.862576, 96.988506)"><g><path d="M 48.296875 -48.390625 L 29.265625 2.15625 C 27.203125 7.15625 23.914062 11.125 19.40625 14.0625 C 14.90625 17 10 18.40625 4.6875 18.28125 L 4.6875 5.15625 C 6.625 5.21875 8.5625 4.8125 10.5 3.9375 C 13.25 2.6875 15.3125 0.71875 16.6875 -1.96875 L 19.3125 -9.1875 L 2.8125 -48.390625 L 17.25 -48.390625 L 25.984375 -27.296875 L 33.765625 -48.390625 Z M 48.296875 -48.390625 "/></g></g></g></g></g></svg>
