<svg xmlns="http://www.w3.org/2000/svg" xmlns:xlink="http://www.w3.org/1999/xlink" width="1920" zoomAndPan="magnify" viewBox="0 0 1440 809.999993" height="1080" preserveAspectRatio="xMidYMid meet" version="1.0"><defs><clipPath id="fc5e3d8ed6"><path d="M 679.140625 362.054688 L 723.5 362.054688 L 723.5 406.417969 L 679.140625 406.417969 Z M 679.140625 362.054688 " clip-rule="nonzero"/></clipPath><clipPath id="951cce1702"><path d="M 701.320312 362.054688 C 689.070312 362.054688 679.140625 371.988281 679.140625 384.234375 C 679.140625 396.484375 689.070312 406.417969 701.320312 406.417969 C 713.570312 406.417969 723.5 396.484375 723.5 384.234375 C 723.5 371.988281 713.570312 362.054688 701.320312 362.054688 Z M 701.320312 362.054688 " clip-rule="nonzero"/></clipPath><clipPath id="0085c01b72"><path d="M 0.140625 0.0546875 L 44.5 0.0546875 L 44.5 44.417969 L 0.140625 44.417969 Z M 0.140625 0.0546875 " clip-rule="nonzero"/></clipPath><clipPath id="e810c0bd69"><path d="M 22.320312 0.0546875 C 10.070312 0.0546875 0.140625 9.988281 0.140625 22.234375 C 0.140625 34.484375 10.070312 44.417969 22.320312 44.417969 C 34.570312 44.417969 44.5 34.484375 44.5 22.234375 C 44.5 9.988281 34.570312 0.0546875 22.320312 0.0546875 Z M 22.320312 0.0546875 " clip-rule="nonzero"/></clipPath><clipPath id="e63a94de39"><rect x="0" width="45" y="0" height="45"/></clipPath><clipPath id="a11e3eb019"><path d="M 723.5 406.417969 L 767.859375 406.417969 L 767.859375 450.777344 L 723.5 450.777344 Z M 723.5 406.417969 " clip-rule="nonzero"/></clipPath><clipPath id="63042c4edf"><path d="M 745.679688 406.417969 C 733.429688 406.417969 723.5 416.347656 723.5 428.597656 C 723.5 440.84375 733.429688 450.777344 745.679688 450.777344 C 757.929688 450.777344 767.859375 440.84375 767.859375 428.597656 C 767.859375 416.347656 757.929688 406.417969 745.679688 406.417969 Z M 745.679688 406.417969 " clip-rule="nonzero"/></clipPath><clipPath id="4df48cbe1c"><path d="M 0.5 0.417969 L 44.859375 0.417969 L 44.859375 44.777344 L 0.5 44.777344 Z M 0.5 0.417969 " clip-rule="nonzero"/></clipPath><clipPath id="68b2a01aad"><path d="M 22.679688 0.417969 C 10.429688 0.417969 0.5 10.347656 0.5 22.597656 C 0.5 34.84375 10.429688 44.777344 22.679688 44.777344 C 34.929688 44.777344 44.859375 34.84375 44.859375 22.597656 C 44.859375 10.347656 34.929688 0.417969 22.679688 0.417969 Z M 22.679688 0.417969 " clip-rule="nonzero"/></clipPath><clipPath id="1c29e572a3"><rect x="0" width="45" y="0" height="45"/></clipPath></defs><g clip-path="url(#fc5e3d8ed6)"><g clip-path="url(#951cce1702)"><g transform="matrix(1, 0, 0, 1, 679, 362)"><g clip-path="url(#e63a94de39)"><g clip-path="url(#0085c01b72)"><g clip-path="url(#e810c0bd69)"><path fill="#8352f3" d="M 0.140625 0.0546875 L 44.5 0.0546875 L 44.5 44.417969 L 0.140625 44.417969 Z M 0.140625 0.0546875 " fill-opacity="1" fill-rule="nonzero"/></g></g></g></g></g></g><g clip-path="url(#a11e3eb019)"><g clip-path="url(#63042c4edf)"><g transform="matrix(1, 0, 0, 1, 723, 406)"><g clip-path="url(#1c29e572a3)"><g clip-path="url(#4df48cbe1c)"><g clip-path="url(#68b2a01aad)"><path fill="#10b981" d="M 0.5 0.417969 L 44.859375 0.417969 L 44.859375 44.777344 L 0.5 44.777344 Z M 0.5 0.417969 " fill-opacity="1" fill-rule="nonzero"/></g></g></g></g></g></g><path stroke-linecap="round" transform="matrix(0.481398, 0.575114, -0.575114, 0.481398, 753.533464, 331.483743)" fill="none" stroke-linejoin="miter" d="M 7.911571 51.277673 C 34.145996 -9.137832 60.378848 -9.091111 86.610126 51.417839 " stroke="#0a0903" stroke-width="12" stroke-opacity="1" stroke-miterlimit="4"/><path stroke-linecap="round" transform="matrix(0.50744, 0.552273, -0.552273, 0.50744, 755.347048, 307.052846)" fill="none" stroke-linejoin="miter" d="M 7.931801 74.770749 C 48.22521 -16.971652 88.513028 -16.925181 128.806449 74.913374 " stroke="#8352f3" stroke-width="12" stroke-opacity="1" stroke-miterlimit="4"/><path stroke-linecap="round" transform="matrix(-0.531578, -0.529079, 0.529079, -0.531578, 696.125947, 452.436453)" fill="none" stroke-linejoin="miter" d="M 8.069035 25.020053 C 20.565884 -0.380644 33.061727 -0.340159 45.560238 25.1452 " stroke="#0a0903" stroke-width="12" stroke-opacity="1" stroke-miterlimit="4"/><path stroke-linecap="round" transform="matrix(-0.481398, -0.575114, 0.575114, -0.481398, 686.222204, 477.553796)" fill="none" stroke-linejoin="miter" d="M 7.915515 51.277911 C 34.145946 -9.140937 60.378798 -9.094215 86.610076 51.414734 " stroke="#10b981" stroke-width="12" stroke-opacity="1" stroke-miterlimit="4"/><path stroke-linecap="round" transform="matrix(-0.50744, -0.552273, 0.552273, -0.50744, 684.412484, 501.992635)" fill="none" stroke-linejoin="miter" d="M 7.92846 74.771638 C 48.221869 -16.970762 88.517045 -16.924603 128.806631 74.910428 " stroke="#0a0903" stroke-width="12" stroke-opacity="1" stroke-miterlimit="4"/><path stroke-linecap="round" transform="matrix(0.531578, 0.529079, -0.529079, 0.531578, 743.636969, 356.601096)" fill="none" stroke-linejoin="miter" d="M 8.065653 25.018918 C 20.562502 -0.381779 33.062019 -0.337603 45.556856 25.144065 " stroke="#8352f3" stroke-width="12" stroke-opacity="1" stroke-miterlimit="4"/></svg>