<svg xmlns="http://www.w3.org/2000/svg" xmlns:xlink="http://www.w3.org/1999/xlink" width="1920" zoomAndPan="magnify" viewBox="0 0 1440 809.999993" height="1080" preserveAspectRatio="xMidYMid meet" version="1.0"><defs><clipPath id="24ab261d43"><path d="M 709.101562 393.359375 L 720.710938 393.359375 L 720.710938 404.96875 L 709.101562 404.96875 Z M 709.101562 393.359375 " clip-rule="nonzero"/></clipPath><clipPath id="01edb40b30"><path d="M 714.90625 393.359375 C 711.699219 393.359375 709.101562 395.957031 709.101562 399.164062 C 709.101562 402.367188 711.699219 404.96875 714.90625 404.96875 C 718.109375 404.96875 720.710938 402.367188 720.710938 399.164062 C 720.710938 395.957031 718.109375 393.359375 714.90625 393.359375 Z M 714.90625 393.359375 " clip-rule="nonzero"/></clipPath><clipPath id="857525b6bc"><path d="M 0.101562 0.359375 L 11.710938 0.359375 L 11.710938 11.96875 L 0.101562 11.96875 Z M 0.101562 0.359375 " clip-rule="nonzero"/></clipPath><clipPath id="f66358d443"><path d="M 5.90625 0.359375 C 2.699219 0.359375 0.101562 2.957031 0.101562 6.164062 C 0.101562 9.367188 2.699219 11.96875 5.90625 11.96875 C 9.109375 11.96875 11.710938 9.367188 11.710938 6.164062 C 11.710938 2.957031 9.109375 0.359375 5.90625 0.359375 Z M 5.90625 0.359375 " clip-rule="nonzero"/></clipPath><clipPath id="7e51d7a8bd"><rect x="0" width="12" y="0" height="12"/></clipPath><clipPath id="972a7000a8"><path d="M 720.710938 404.96875 L 732.316406 404.96875 L 732.316406 416.574219 L 720.710938 416.574219 Z M 720.710938 404.96875 " clip-rule="nonzero"/></clipPath><clipPath id="f5392e7a15"><path d="M 726.511719 404.96875 C 723.308594 404.96875 720.710938 407.566406 720.710938 410.769531 C 720.710938 413.976562 723.308594 416.574219 726.511719 416.574219 C 729.71875 416.574219 732.316406 413.976562 732.316406 410.769531 C 732.316406 407.566406 729.71875 404.96875 726.511719 404.96875 Z M 726.511719 404.96875 " clip-rule="nonzero"/></clipPath><clipPath id="102aef6313"><path d="M 0.710938 0.96875 L 12.316406 0.96875 L 12.316406 12.574219 L 0.710938 12.574219 Z M 0.710938 0.96875 " clip-rule="nonzero"/></clipPath><clipPath id="d316e1be8f"><path d="M 6.511719 0.96875 C 3.308594 0.96875 0.710938 3.566406 0.710938 6.769531 C 0.710938 9.976562 3.308594 12.574219 6.511719 12.574219 C 9.71875 12.574219 12.316406 9.976562 12.316406 6.769531 C 12.316406 3.566406 9.71875 0.96875 6.511719 0.96875 Z M 6.511719 0.96875 " clip-rule="nonzero"/></clipPath><clipPath id="12c5e00d29"><rect x="0" width="13" y="0" height="13"/></clipPath></defs><g clip-path="url(#24ab261d43)"><g clip-path="url(#01edb40b30)"><g transform="matrix(1, 0, 0, 1, 709, 393)"><g clip-path="url(#7e51d7a8bd)"><g clip-path="url(#857525b6bc)"><g clip-path="url(#f66358d443)"><path fill="#0a0903" d="M 0.101562 0.359375 L 11.710938 0.359375 L 11.710938 11.96875 L 0.101562 11.96875 Z M 0.101562 0.359375 " fill-opacity="1" fill-rule="nonzero"/></g></g></g></g></g></g><g clip-path="url(#972a7000a8)"><g clip-path="url(#f5392e7a15)"><g transform="matrix(1, 0, 0, 1, 720, 404)"><g clip-path="url(#12c5e00d29)"><g clip-path="url(#102aef6313)"><g clip-path="url(#d316e1be8f)"><path fill="#0a0903" d="M 0.710938 0.96875 L 12.316406 0.96875 L 12.316406 12.574219 L 0.710938 12.574219 Z M 0.710938 0.96875 " fill-opacity="1" fill-rule="nonzero"/></g></g></g></g></g></g><path stroke-linecap="round" transform="matrix(0.531578, 0.529079, -0.529079, 0.531578, 725.971842, 392.005841)" fill="none" stroke-linejoin="miter" d="M 2.001685 6.564977 C 5.31754 -0.233134 8.632008 -0.188498 11.948779 6.695212 " stroke="#0a0903" stroke-width="3" stroke-opacity="1" stroke-miterlimit="4"/><path stroke-linecap="round" transform="matrix(0.481398, 0.575114, -0.575114, 0.481398, 728.557002, 385.432851)" fill="none" stroke-linejoin="miter" d="M 1.994776 13.376586 C 8.882844 -2.504296 15.767415 -2.460559 22.656476 13.514482 " stroke="#0a0903" stroke-width="3" stroke-opacity="1" stroke-miterlimit="4"/><path stroke-linecap="round" transform="matrix(0.50744, 0.552273, -0.552273, 0.50744, 729.033546, 379.04001)" fill="none" stroke-linejoin="miter" d="M 1.998787 19.523302 C 12.565632 -4.555606 23.132101 -4.508696 33.698194 19.664032 " stroke="#0a0903" stroke-width="3" stroke-opacity="1" stroke-miterlimit="4"/><path stroke-linecap="round" transform="matrix(-0.531578, -0.529079, 0.529079, -0.531578, 713.544354, 416.928815)" fill="none" stroke-linejoin="miter" d="M 2.003224 6.565444 C 5.319079 -0.232667 8.633547 -0.188031 11.946626 6.699353 " stroke="#0a0903" stroke-width="3" stroke-opacity="1" stroke-miterlimit="4"/><path stroke-linecap="round" transform="matrix(-0.481398, -0.575114, 0.575114, -0.481398, 710.960826, 423.506183)" fill="none" stroke-linejoin="miter" d="M 1.994235 13.372303 C 8.87896 -2.504585 15.767525 -2.457505 22.652593 13.514193 " stroke="#0a0903" stroke-width="3" stroke-opacity="1" stroke-miterlimit="4"/><path stroke-linecap="round" transform="matrix(-0.50744, -0.552273, 0.552273, -0.50744, 710.484762, 429.89779)" fill="none" stroke-linejoin="miter" d="M 1.997978 19.524774 C 12.564824 -4.554135 23.131293 -4.507225 33.697385 19.665504 " stroke="#0a0903" stroke-width="3" stroke-opacity="1" stroke-miterlimit="4"/></svg>
