<svg xmlns="http://www.w3.org/2000/svg" xmlns:xlink="http://www.w3.org/1999/xlink" width="1920" zoomAndPan="magnify" viewBox="0 0 1440 809.999993" height="1080" preserveAspectRatio="xMidYMid meet" version="1.0"><defs><g/><clipPath id="14af554d34"><rect x="0" width="137" y="0" height="72"/></clipPath><clipPath id="6b23f33d48"><path d="M 640.851562 397.109375 L 652.460938 397.109375 L 652.460938 408.71875 L 640.851562 408.71875 Z M 640.851562 397.109375 " clip-rule="nonzero"/></clipPath><clipPath id="3460243835"><path d="M 646.65625 397.109375 C 643.449219 397.109375 640.851562 399.707031 640.851562 402.914062 C 640.851562 406.117188 643.449219 408.71875 646.65625 408.71875 C 649.859375 408.71875 652.460938 406.117188 652.460938 402.914062 C 652.460938 399.707031 649.859375 397.109375 646.65625 397.109375 Z M 646.65625 397.109375 " clip-rule="nonzero"/></clipPath><clipPath id="785d5f3bda"><path d="M 0.851562 0.109375 L 12.460938 0.109375 L 12.460938 11.71875 L 0.851562 11.71875 Z M 0.851562 0.109375 " clip-rule="nonzero"/></clipPath><clipPath id="4227a38ff8"><path d="M 6.65625 0.109375 C 3.449219 0.109375 0.851562 2.707031 0.851562 5.914062 C 0.851562 9.117188 3.449219 11.71875 6.65625 11.71875 C 9.859375 11.71875 12.460938 9.117188 12.460938 5.914062 C 12.460938 2.707031 9.859375 0.109375 6.65625 0.109375 Z M 6.65625 0.109375 " clip-rule="nonzero"/></clipPath><clipPath id="8668cd4132"><rect x="0" width="13" y="0" height="12"/></clipPath><clipPath id="203b64d392"><path d="M 652.460938 408.71875 L 664.066406 408.71875 L 664.066406 420.324219 L 652.460938 420.324219 Z M 652.460938 408.71875 " clip-rule="nonzero"/></clipPath><clipPath id="c18c4364bd"><path d="M 658.261719 408.71875 C 655.058594 408.71875 652.460938 411.316406 652.460938 414.519531 C 652.460938 417.726562 655.058594 420.324219 658.261719 420.324219 C 661.46875 420.324219 664.066406 417.726562 664.066406 414.519531 C 664.066406 411.316406 661.46875 408.71875 658.261719 408.71875 Z M 658.261719 408.71875 " clip-rule="nonzero"/></clipPath><clipPath id="f56118a54f"><path d="M 0.460938 0.71875 L 12.066406 0.71875 L 12.066406 12.324219 L 0.460938 12.324219 Z M 0.460938 0.71875 " clip-rule="nonzero"/></clipPath><clipPath id="604ce97b42"><path d="M 6.261719 0.71875 C 3.058594 0.71875 0.460938 3.316406 0.460938 6.519531 C 0.460938 9.726562 3.058594 12.324219 6.261719 12.324219 C 9.46875 12.324219 12.066406 9.726562 12.066406 6.519531 C 12.066406 3.316406 9.46875 0.71875 6.261719 0.71875 Z M 6.261719 0.71875 " clip-rule="nonzero"/></clipPath><clipPath id="7bfc8a146a"><rect x="0" width="13" y="0" height="13"/></clipPath></defs><g transform="matrix(1, 0, 0, 1, 678, 369)"><g clip-path="url(#14af554d34)"><g fill="#0a0903" fill-opacity="1"><g transform="translate(1.063418, 56.054044)"><g><path d="M 18.375 -34.9375 C 22.351562 -34.9375 25.507812 -33.628906 27.84375 -31.015625 C 29.851562 -28.722656 30.859375 -26.050781 30.859375 -23 C 30.859375 -20.03125 29.925781 -17.4375 28.0625 -15.21875 C 25.726562 -12.488281 22.46875 -11.125 18.28125 -11.125 L 10 -11.125 L 10 0 L 1.609375 0 L 1.609375 -34.9375 Z M 22.3125 -20.046875 C 22.664062 -20.472656 22.929688 -20.972656 23.109375 -21.546875 C 23.253906 -22.054688 23.328125 -22.539062 23.328125 -23 C 23.328125 -23.46875 23.238281 -23.972656 23.0625 -24.515625 C 22.84375 -25.085938 22.554688 -25.585938 22.203125 -26.015625 C 21.378906 -26.941406 20.101562 -27.40625 18.375 -27.40625 L 10 -27.40625 L 10 -18.65625 L 18.28125 -18.65625 C 19.382812 -18.65625 20.3125 -18.816406 21.0625 -19.140625 C 21.570312 -19.421875 21.988281 -19.722656 22.3125 -20.046875 Z M 22.3125 -20.046875 "/></g></g></g><g fill="#0a0903" fill-opacity="1"><g transform="translate(33.530336, 56.054044)"><g><path d="M 9.140625 -23.546875 C 9.742188 -25.265625 10.765625 -26.460938 12.203125 -27.140625 C 13.597656 -27.828125 15.691406 -28.171875 18.484375 -28.171875 L 18.484375 -20.484375 C 15.765625 -20.484375 13.488281 -19.550781 11.65625 -17.6875 C 9.976562 -16.039062 9.140625 -14.226562 9.140625 -12.25 L 9.140625 0 L 1.609375 0 L 1.609375 -27.6875 L 9.140625 -27.6875 Z M 9.140625 -23.546875 "/></g></g></g><g fill="#0a0903" fill-opacity="1"><g transform="translate(51.53758, 56.054044)"><g><path d="M 14.34375 -27.6875 C 18.1875 -27.71875 21.453125 -26.390625 24.140625 -23.703125 C 26.859375 -20.984375 28.21875 -17.722656 28.21875 -13.921875 C 28.25 -10.085938 26.921875 -6.828125 24.234375 -4.140625 C 21.546875 -1.410156 18.304688 -0.03125 14.515625 0 C 10.679688 0.03125 7.398438 -1.296875 4.671875 -3.984375 C 1.953125 -6.671875 0.59375 -9.929688 0.59375 -13.765625 C 0.550781 -17.597656 1.875 -20.859375 4.5625 -23.546875 C 7.25 -26.265625 10.507812 -27.644531 14.34375 -27.6875 Z M 19.25 -9.03125 C 20.570312 -10.351562 21.234375 -11.96875 21.234375 -13.875 C 21.234375 -15.726562 20.550781 -17.335938 19.1875 -18.703125 C 17.820312 -19.992188 16.207031 -20.640625 14.34375 -20.640625 C 12.488281 -20.640625 10.894531 -19.976562 9.5625 -18.65625 C 8.238281 -17.257812 7.578125 -15.644531 7.578125 -13.8125 C 7.578125 -11.945312 8.257812 -10.332031 9.625 -8.96875 C 10.945312 -7.644531 12.554688 -6.984375 14.453125 -6.984375 C 16.390625 -7.054688 17.988281 -7.738281 19.25 -9.03125 Z M 19.25 -9.03125 "/></g></g></g><g fill="#0a0903" fill-opacity="1"><g transform="translate(78.145278, 56.054044)"><g><path d="M 24.1875 0 L 15.53125 -8.59375 L 6.9375 0 L 1.609375 -5.328125 L 10.21875 -13.921875 L 1.609375 -22.578125 L 6.9375 -27.890625 L 15.53125 -19.25 L 24.1875 -27.890625 L 29.515625 -22.578125 L 20.859375 -13.921875 L 29.515625 -5.328125 Z M 24.1875 0 "/></g></g></g><g fill="#0a0903" fill-opacity="1"><g transform="translate(107.064372, 56.054044)"><g><path d="M 27.6875 -27.734375 L 16.765625 1.234375 C 15.585938 4.097656 13.707031 6.375 11.125 8.0625 C 8.539062 9.75 5.726562 10.554688 2.6875 10.484375 L 2.6875 2.953125 C 3.800781 2.992188 4.910156 2.757812 6.015625 2.25 C 7.597656 1.539062 8.78125 0.414062 9.5625 -1.125 L 11.078125 -5.265625 L 1.609375 -27.734375 L 9.890625 -27.734375 L 14.890625 -15.640625 L 19.34375 -27.734375 Z M 27.6875 -27.734375 "/></g></g></g></g></g><g clip-path="url(#6b23f33d48)"><g clip-path="url(#3460243835)"><g transform="matrix(1, 0, 0, 1, 640, 397)"><g clip-path="url(#8668cd4132)"><g clip-path="url(#785d5f3bda)"><g clip-path="url(#4227a38ff8)"><path fill="#0a0903" d="M 0.851562 0.109375 L 12.460938 0.109375 L 12.460938 11.71875 L 0.851562 11.71875 Z M 0.851562 0.109375 " fill-opacity="1" fill-rule="nonzero"/></g></g></g></g></g></g><g clip-path="url(#203b64d392)"><g clip-path="url(#c18c4364bd)"><g transform="matrix(1, 0, 0, 1, 652, 408)"><g clip-path="url(#7bfc8a146a)"><g clip-path="url(#f56118a54f)"><g clip-path="url(#604ce97b42)"><path fill="#0a0903" d="M 0.460938 0.71875 L 12.066406 0.71875 L 12.066406 12.324219 L 0.460938 12.324219 Z M 0.460938 0.71875 " fill-opacity="1" fill-rule="nonzero"/></g></g></g></g></g></g><path stroke-linecap="round" transform="matrix(0.531578, 0.529079, -0.529079, 0.531578, 657.721845, 395.755841)" fill="none" stroke-linejoin="miter" d="M 2.001682 6.56498 C 5.317537 -0.233131 8.632005 -0.188494 11.948775 6.695215 " stroke="#0a0903" stroke-width="3" stroke-opacity="1" stroke-miterlimit="4"/><path stroke-linecap="round" transform="matrix(0.481398, 0.575114, -0.575114, 0.481398, 660.307005, 389.182851)" fill="none" stroke-linejoin="miter" d="M 1.994773 13.376589 C 8.882841 -2.504292 15.767412 -2.460555 22.656473 13.514486 " stroke="#0a0903" stroke-width="3" stroke-opacity="1" stroke-miterlimit="4"/><path stroke-linecap="round" transform="matrix(0.50744, 0.552273, -0.552273, 0.50744, 660.783549, 382.79001)" fill="none" stroke-linejoin="miter" d="M 1.998784 19.523306 C 12.56563 -4.555603 23.132099 -4.508693 33.698191 19.664036 " stroke="#0a0903" stroke-width="3" stroke-opacity="1" stroke-miterlimit="4"/><path stroke-linecap="round" transform="matrix(-0.531578, -0.529079, 0.529079, -0.531578, 645.294358, 420.678815)" fill="none" stroke-linejoin="miter" d="M 2.003227 6.56544 C 5.319082 -0.232671 8.63355 -0.188034 11.946629 6.69935 " stroke="#0a0903" stroke-width="3" stroke-opacity="1" stroke-miterlimit="4"/><path stroke-linecap="round" transform="matrix(-0.481398, -0.575114, 0.575114, -0.481398, 642.71083, 427.256183)" fill="none" stroke-linejoin="miter" d="M 1.994238 13.372299 C 8.878963 -2.504589 15.767528 -2.457509 22.652596 13.51419 " stroke="#0a0903" stroke-width="3" stroke-opacity="1" stroke-miterlimit="4"/><path stroke-linecap="round" transform="matrix(-0.50744, -0.552273, 0.552273, -0.50744, 642.234766, 433.64779)" fill="none" stroke-linejoin="miter" d="M 1.997981 19.52477 C 12.564826 -4.554138 23.131296 -4.507228 33.697388 19.665501 " stroke="#0a0903" stroke-width="3" stroke-opacity="1" stroke-miterlimit="4"/></svg>