<svg xmlns="http://www.w3.org/2000/svg" xmlns:xlink="http://www.w3.org/1999/xlink" width="1920" zoomAndPan="magnify" viewBox="0 0 1440 809.999993" height="1080" preserveAspectRatio="xMidYMid meet" version="1.0"><defs><g/><clipPath id="3b372cea16"><path d="M 435.765625 354.621094 L 991.445312 354.621094 L 991.445312 442.484375 L 435.765625 442.484375 Z M 435.765625 354.621094 " clip-rule="nonzero"/></clipPath><clipPath id="30f03911c3"><path d="M 469.515625 354.621094 L 957.628906 354.621094 C 976.265625 354.621094 991.378906 369.730469 991.378906 388.371094 L 991.378906 408.734375 C 991.378906 427.375 976.265625 442.484375 957.628906 442.484375 L 469.515625 442.484375 C 450.875 442.484375 435.765625 427.375 435.765625 408.734375 L 435.765625 388.371094 C 435.765625 369.730469 450.875 354.621094 469.515625 354.621094 Z M 469.515625 354.621094 " clip-rule="nonzero"/></clipPath><clipPath id="2f928ccf6c"><path d="M 0.765625 0.621094 L 556.441406 0.621094 L 556.441406 88.484375 L 0.765625 88.484375 Z M 0.765625 0.621094 " clip-rule="nonzero"/></clipPath><clipPath id="2f10f2f675"><path d="M 34.515625 0.621094 L 522.628906 0.621094 C 541.265625 0.621094 556.378906 15.730469 556.378906 34.371094 L 556.378906 54.734375 C 556.378906 73.375 541.265625 88.484375 522.628906 88.484375 L 34.515625 88.484375 C 15.875 88.484375 0.765625 73.375 0.765625 54.734375 L 0.765625 34.371094 C 0.765625 15.730469 15.875 0.621094 34.515625 0.621094 Z M 34.515625 0.621094 " clip-rule="nonzero"/></clipPath><clipPath id="9766109740"><rect x="0" width="557" y="0" height="89"/></clipPath></defs><g clip-path="url(#3b372cea16)"><g clip-path="url(#30f03911c3)"><g transform="matrix(1, 0, 0, 1, 435, 354)"><g clip-path="url(#9766109740)"><g clip-path="url(#2f928ccf6c)"><g clip-path="url(#2f10f2f675)"><path fill="#0a0903" d="M 0.765625 0.621094 L 556.445312 0.621094 L 556.445312 88.484375 L 0.765625 88.484375 Z M 0.765625 0.621094 " fill-opacity="1" fill-rule="nonzero"/></g></g></g></g></g></g><g fill="#f3f4f6" fill-opacity="1"><g transform="translate(600.034631, 408.502382)"><g><path d="M 9.90625 0.28125 C 7.289062 0.28125 5.265625 -0.382812 3.828125 -1.71875 C 2.390625 -3.0625 1.625 -4.96875 1.53125 -7.4375 C 1.519531 -7.945312 1.515625 -8.78125 1.515625 -9.9375 C 1.515625 -11.113281 1.519531 -11.96875 1.53125 -12.5 C 1.625 -14.925781 2.390625 -16.816406 3.828125 -18.171875 C 5.273438 -19.535156 7.300781 -20.21875 9.90625 -20.21875 C 11.59375 -20.21875 13.0625 -19.925781 14.3125 -19.34375 C 15.570312 -18.757812 16.546875 -17.960938 17.234375 -16.953125 C 17.929688 -15.953125 18.296875 -14.828125 18.328125 -13.578125 L 18.328125 -13.515625 C 18.328125 -13.367188 18.265625 -13.242188 18.140625 -13.140625 C 18.023438 -13.035156 17.890625 -12.984375 17.734375 -12.984375 L 14.96875 -12.984375 C 14.75 -12.984375 14.582031 -13.035156 14.46875 -13.140625 C 14.351562 -13.242188 14.253906 -13.425781 14.171875 -13.6875 C 13.890625 -14.863281 13.394531 -15.691406 12.6875 -16.171875 C 11.988281 -16.660156 11.0625 -16.90625 9.90625 -16.90625 C 7.195312 -16.90625 5.785156 -15.390625 5.671875 -12.359375 C 5.648438 -11.847656 5.640625 -11.0625 5.640625 -10 C 5.640625 -8.925781 5.648438 -8.117188 5.671875 -7.578125 C 5.785156 -4.535156 7.195312 -3.015625 9.90625 -3.015625 C 11.039062 -3.015625 11.960938 -3.253906 12.671875 -3.734375 C 13.390625 -4.222656 13.890625 -5.054688 14.171875 -6.234375 C 14.253906 -6.503906 14.351562 -6.691406 14.46875 -6.796875 C 14.582031 -6.898438 14.75 -6.953125 14.96875 -6.953125 L 17.734375 -6.953125 C 17.910156 -6.953125 18.054688 -6.894531 18.171875 -6.78125 C 18.296875 -6.664062 18.347656 -6.519531 18.328125 -6.34375 C 18.296875 -5.09375 17.929688 -3.960938 17.234375 -2.953125 C 16.546875 -1.953125 15.570312 -1.160156 14.3125 -0.578125 C 13.0625 -0.00390625 11.59375 0.28125 9.90625 0.28125 Z M 9.90625 0.28125 "/></g></g></g><g fill="#f3f4f6" fill-opacity="1"><g transform="translate(620.663601, 408.502382)"><g><path d="M 2.5625 0 C 2.375 0 2.210938 -0.0664062 2.078125 -0.203125 C 1.941406 -0.335938 1.875 -0.5 1.875 -0.6875 L 1.875 -14.09375 C 1.875 -14.300781 1.941406 -14.46875 2.078125 -14.59375 C 2.210938 -14.726562 2.375 -14.796875 2.5625 -14.796875 L 4.890625 -14.796875 C 5.097656 -14.796875 5.269531 -14.726562 5.40625 -14.59375 C 5.539062 -14.46875 5.609375 -14.300781 5.609375 -14.09375 L 5.609375 -12.921875 C 6.554688 -14.171875 7.921875 -14.796875 9.703125 -14.796875 L 10.90625 -14.796875 C 11.113281 -14.796875 11.28125 -14.734375 11.40625 -14.609375 C 11.53125 -14.492188 11.59375 -14.332031 11.59375 -14.125 L 11.59375 -12.046875 C 11.59375 -11.847656 11.53125 -11.679688 11.40625 -11.546875 C 11.28125 -11.421875 11.113281 -11.359375 10.90625 -11.359375 L 8.65625 -11.359375 C 7.757812 -11.359375 7.054688 -11.101562 6.546875 -10.59375 C 6.035156 -10.082031 5.78125 -9.378906 5.78125 -8.484375 L 5.78125 -0.6875 C 5.78125 -0.5 5.710938 -0.335938 5.578125 -0.203125 C 5.441406 -0.0664062 5.28125 0 5.09375 0 Z M 2.5625 0 "/></g></g></g><g fill="#f3f4f6" fill-opacity="1"><g transform="translate(633.524814, 408.502382)"><g><path d="M 8.28125 0.28125 C 6.15625 0.28125 4.46875 -0.320312 3.21875 -1.53125 C 1.976562 -2.75 1.320312 -4.476562 1.25 -6.71875 L 1.21875 -7.4375 C 1.21875 -9.800781 1.835938 -11.664062 3.078125 -13.03125 C 4.328125 -14.40625 6.050781 -15.09375 8.25 -15.09375 C 10.507812 -15.09375 12.25 -14.40625 13.46875 -13.03125 C 14.695312 -11.664062 15.3125 -9.847656 15.3125 -7.578125 L 15.3125 -6.96875 C 15.3125 -6.78125 15.242188 -6.617188 15.109375 -6.484375 C 14.984375 -6.359375 14.816406 -6.296875 14.609375 -6.296875 L 5.15625 -6.296875 L 5.15625 -6.0625 C 5.1875 -5 5.472656 -4.117188 6.015625 -3.421875 C 6.554688 -2.734375 7.300781 -2.390625 8.25 -2.390625 C 9.332031 -2.390625 10.21875 -2.828125 10.90625 -3.703125 C 11.070312 -3.910156 11.203125 -4.035156 11.296875 -4.078125 C 11.390625 -4.128906 11.550781 -4.15625 11.78125 -4.15625 L 14.296875 -4.15625 C 14.460938 -4.15625 14.609375 -4.109375 14.734375 -4.015625 C 14.859375 -3.921875 14.921875 -3.785156 14.921875 -3.609375 C 14.921875 -3.160156 14.648438 -2.625 14.109375 -2 C 13.566406 -1.382812 12.789062 -0.847656 11.78125 -0.390625 C 10.78125 0.0546875 9.613281 0.28125 8.28125 0.28125 Z M 11.390625 -8.71875 L 11.390625 -8.765625 C 11.390625 -9.890625 11.109375 -10.785156 10.546875 -11.453125 C 9.984375 -12.128906 9.21875 -12.46875 8.25 -12.46875 C 7.28125 -12.46875 6.519531 -12.128906 5.96875 -11.453125 C 5.425781 -10.785156 5.15625 -9.890625 5.15625 -8.765625 L 5.15625 -8.71875 Z M 11.390625 -8.71875 "/></g></g></g><g fill="#f3f4f6" fill-opacity="1"><g transform="translate(651.109312, 408.502382)"><g><path d="M 6.171875 0.28125 C 5.203125 0.28125 4.316406 0.0859375 3.515625 -0.296875 C 2.710938 -0.679688 2.078125 -1.207031 1.609375 -1.875 C 1.140625 -2.539062 0.90625 -3.273438 0.90625 -4.078125 C 0.90625 -5.359375 1.425781 -6.394531 2.46875 -7.1875 C 3.519531 -7.988281 4.957031 -8.535156 6.78125 -8.828125 L 10.671875 -9.390625 L 10.671875 -10 C 10.671875 -10.8125 10.460938 -11.425781 10.046875 -11.84375 C 9.628906 -12.257812 8.96875 -12.46875 8.0625 -12.46875 C 7.4375 -12.46875 6.929688 -12.351562 6.546875 -12.125 C 6.171875 -11.894531 5.863281 -11.660156 5.625 -11.421875 C 5.382812 -11.191406 5.226562 -11.035156 5.15625 -10.953125 C 5.070312 -10.734375 4.925781 -10.625 4.71875 -10.625 L 2.5 -10.625 C 2.332031 -10.625 2.1875 -10.675781 2.0625 -10.78125 C 1.9375 -10.894531 1.875 -11.050781 1.875 -11.25 C 1.894531 -11.71875 2.128906 -12.25 2.578125 -12.84375 C 3.023438 -13.445312 3.710938 -13.972656 4.640625 -14.421875 C 5.566406 -14.867188 6.710938 -15.09375 8.078125 -15.09375 C 10.316406 -15.09375 11.945312 -14.585938 12.96875 -13.578125 C 14 -12.578125 14.515625 -11.257812 14.515625 -9.625 L 14.515625 -0.6875 C 14.515625 -0.5 14.453125 -0.335938 14.328125 -0.203125 C 14.210938 -0.0664062 14.046875 0 13.828125 0 L 11.46875 0 C 11.28125 0 11.117188 -0.0664062 10.984375 -0.203125 C 10.859375 -0.335938 10.796875 -0.5 10.796875 -0.6875 L 10.796875 -1.796875 C 10.367188 -1.179688 9.773438 -0.679688 9.015625 -0.296875 C 8.265625 0.0859375 7.316406 0.28125 6.171875 0.28125 Z M 7.140625 -2.453125 C 8.191406 -2.453125 9.046875 -2.789062 9.703125 -3.46875 C 10.367188 -4.15625 10.703125 -5.144531 10.703125 -6.4375 L 10.703125 -7 L 7.859375 -6.546875 C 5.671875 -6.203125 4.578125 -5.472656 4.578125 -4.359375 C 4.578125 -3.742188 4.828125 -3.269531 5.328125 -2.9375 C 5.835938 -2.613281 6.441406 -2.453125 7.140625 -2.453125 Z M 7.140625 -2.453125 "/></g></g></g><g fill="#f3f4f6" fill-opacity="1"><g transform="translate(668.38078, 408.502382)"><g><path d="M 8.59375 0 C 6.863281 0 5.5625 -0.445312 4.6875 -1.34375 C 3.820312 -2.25 3.390625 -3.578125 3.390625 -5.328125 L 3.390625 -11.75 L 1.140625 -11.75 C 0.953125 -11.75 0.789062 -11.816406 0.65625 -11.953125 C 0.519531 -12.085938 0.453125 -12.25 0.453125 -12.4375 L 0.453125 -14.125 C 0.453125 -14.3125 0.519531 -14.46875 0.65625 -14.59375 C 0.789062 -14.726562 0.953125 -14.796875 1.140625 -14.796875 L 3.390625 -14.796875 L 3.390625 -19.53125 C 3.390625 -19.738281 3.453125 -19.90625 3.578125 -20.03125 C 3.710938 -20.15625 3.878906 -20.21875 4.078125 -20.21875 L 6.4375 -20.21875 C 6.644531 -20.21875 6.8125 -20.15625 6.9375 -20.03125 C 7.0625 -19.90625 7.125 -19.738281 7.125 -19.53125 L 7.125 -14.796875 L 10.671875 -14.796875 C 10.859375 -14.796875 11.019531 -14.726562 11.15625 -14.59375 C 11.289062 -14.46875 11.359375 -14.3125 11.359375 -14.125 L 11.359375 -12.4375 C 11.359375 -12.25 11.289062 -12.085938 11.15625 -11.953125 C 11.019531 -11.816406 10.859375 -11.75 10.671875 -11.75 L 7.125 -11.75 L 7.125 -5.640625 C 7.125 -4.816406 7.265625 -4.195312 7.546875 -3.78125 C 7.828125 -3.363281 8.289062 -3.15625 8.9375 -3.15625 L 10.9375 -3.15625 C 11.144531 -3.15625 11.304688 -3.09375 11.421875 -2.96875 C 11.546875 -2.851562 11.609375 -2.691406 11.609375 -2.484375 L 11.609375 -0.6875 C 11.609375 -0.5 11.546875 -0.335938 11.421875 -0.203125 C 11.304688 -0.0664062 11.144531 0 10.9375 0 Z M 8.59375 0 "/></g></g></g><g fill="#f3f4f6" fill-opacity="1"><g transform="translate(681.782669, 408.502382)"><g><path d="M 8.28125 0.28125 C 6.15625 0.28125 4.46875 -0.320312 3.21875 -1.53125 C 1.976562 -2.75 1.320312 -4.476562 1.25 -6.71875 L 1.21875 -7.4375 C 1.21875 -9.800781 1.835938 -11.664062 3.078125 -13.03125 C 4.328125 -14.40625 6.050781 -15.09375 8.25 -15.09375 C 10.507812 -15.09375 12.25 -14.40625 13.46875 -13.03125 C 14.695312 -11.664062 15.3125 -9.847656 15.3125 -7.578125 L 15.3125 -6.96875 C 15.3125 -6.78125 15.242188 -6.617188 15.109375 -6.484375 C 14.984375 -6.359375 14.816406 -6.296875 14.609375 -6.296875 L 5.15625 -6.296875 L 5.15625 -6.0625 C 5.1875 -5 5.472656 -4.117188 6.015625 -3.421875 C 6.554688 -2.734375 7.300781 -2.390625 8.25 -2.390625 C 9.332031 -2.390625 10.21875 -2.828125 10.90625 -3.703125 C 11.070312 -3.910156 11.203125 -4.035156 11.296875 -4.078125 C 11.390625 -4.128906 11.550781 -4.15625 11.78125 -4.15625 L 14.296875 -4.15625 C 14.460938 -4.15625 14.609375 -4.109375 14.734375 -4.015625 C 14.859375 -3.921875 14.921875 -3.785156 14.921875 -3.609375 C 14.921875 -3.160156 14.648438 -2.625 14.109375 -2 C 13.566406 -1.382812 12.789062 -0.847656 11.78125 -0.390625 C 10.78125 0.0546875 9.613281 0.28125 8.28125 0.28125 Z M 11.390625 -8.71875 L 11.390625 -8.765625 C 11.390625 -9.890625 11.109375 -10.785156 10.546875 -11.453125 C 9.984375 -12.128906 9.21875 -12.46875 8.25 -12.46875 C 7.28125 -12.46875 6.519531 -12.128906 5.96875 -11.453125 C 5.425781 -10.785156 5.15625 -9.890625 5.15625 -8.765625 L 5.15625 -8.71875 Z M 11.390625 -8.71875 "/></g></g></g><g fill="#f3f4f6" fill-opacity="1"><g transform="translate(699.367167, 408.502382)"><g/></g></g><g fill="#f3f4f6" fill-opacity="1"><g transform="translate(706.993098, 408.502382)"><g><path d="M 6.171875 0.28125 C 5.203125 0.28125 4.316406 0.0859375 3.515625 -0.296875 C 2.710938 -0.679688 2.078125 -1.207031 1.609375 -1.875 C 1.140625 -2.539062 0.90625 -3.273438 0.90625 -4.078125 C 0.90625 -5.359375 1.425781 -6.394531 2.46875 -7.1875 C 3.519531 -7.988281 4.957031 -8.535156 6.78125 -8.828125 L 10.671875 -9.390625 L 10.671875 -10 C 10.671875 -10.8125 10.460938 -11.425781 10.046875 -11.84375 C 9.628906 -12.257812 8.96875 -12.46875 8.0625 -12.46875 C 7.4375 -12.46875 6.929688 -12.351562 6.546875 -12.125 C 6.171875 -11.894531 5.863281 -11.660156 5.625 -11.421875 C 5.382812 -11.191406 5.226562 -11.035156 5.15625 -10.953125 C 5.070312 -10.734375 4.925781 -10.625 4.71875 -10.625 L 2.5 -10.625 C 2.332031 -10.625 2.1875 -10.675781 2.0625 -10.78125 C 1.9375 -10.894531 1.875 -11.050781 1.875 -11.25 C 1.894531 -11.71875 2.128906 -12.25 2.578125 -12.84375 C 3.023438 -13.445312 3.710938 -13.972656 4.640625 -14.421875 C 5.566406 -14.867188 6.710938 -15.09375 8.078125 -15.09375 C 10.316406 -15.09375 11.945312 -14.585938 12.96875 -13.578125 C 14 -12.578125 14.515625 -11.257812 14.515625 -9.625 L 14.515625 -0.6875 C 14.515625 -0.5 14.453125 -0.335938 14.328125 -0.203125 C 14.210938 -0.0664062 14.046875 0 13.828125 0 L 11.46875 0 C 11.28125 0 11.117188 -0.0664062 10.984375 -0.203125 C 10.859375 -0.335938 10.796875 -0.5 10.796875 -0.6875 L 10.796875 -1.796875 C 10.367188 -1.179688 9.773438 -0.679688 9.015625 -0.296875 C 8.265625 0.0859375 7.316406 0.28125 6.171875 0.28125 Z M 7.140625 -2.453125 C 8.191406 -2.453125 9.046875 -2.789062 9.703125 -3.46875 C 10.367188 -4.15625 10.703125 -5.144531 10.703125 -6.4375 L 10.703125 -7 L 7.859375 -6.546875 C 5.671875 -6.203125 4.578125 -5.472656 4.578125 -4.359375 C 4.578125 -3.742188 4.828125 -3.269531 5.328125 -2.9375 C 5.835938 -2.613281 6.441406 -2.453125 7.140625 -2.453125 Z M 7.140625 -2.453125 "/></g></g></g><g fill="#f3f4f6" fill-opacity="1"><g transform="translate(724.406874, 408.502382)"><g><path d="M 8.28125 0.28125 C 6.195312 0.28125 4.53125 -0.296875 3.28125 -1.453125 C 2.039062 -2.609375 1.382812 -4.210938 1.3125 -6.265625 L 1.28125 -7.40625 L 1.3125 -8.546875 C 1.382812 -10.585938 2.039062 -12.1875 3.28125 -13.34375 C 4.53125 -14.507812 6.195312 -15.09375 8.28125 -15.09375 C 9.78125 -15.09375 11.046875 -14.828125 12.078125 -14.296875 C 13.117188 -13.765625 13.890625 -13.113281 14.390625 -12.34375 C 14.890625 -11.570312 15.160156 -10.835938 15.203125 -10.140625 C 15.222656 -9.941406 15.160156 -9.773438 15.015625 -9.640625 C 14.867188 -9.515625 14.703125 -9.453125 14.515625 -9.453125 L 11.984375 -9.453125 C 11.773438 -9.453125 11.625 -9.492188 11.53125 -9.578125 C 11.4375 -9.660156 11.34375 -9.816406 11.25 -10.046875 C 10.957031 -10.765625 10.578125 -11.285156 10.109375 -11.609375 C 9.648438 -11.929688 9.0625 -12.09375 8.34375 -12.09375 C 7.375 -12.09375 6.617188 -11.789062 6.078125 -11.1875 C 5.535156 -10.582031 5.242188 -9.648438 5.203125 -8.390625 L 5.1875 -7.34375 L 5.203125 -6.40625 C 5.316406 -3.9375 6.363281 -2.703125 8.34375 -2.703125 C 9.082031 -2.703125 9.675781 -2.859375 10.125 -3.171875 C 10.582031 -3.484375 10.957031 -4.007812 11.25 -4.75 C 11.320312 -4.957031 11.410156 -5.109375 11.515625 -5.203125 C 11.617188 -5.304688 11.773438 -5.359375 11.984375 -5.359375 L 14.515625 -5.359375 C 14.703125 -5.359375 14.867188 -5.289062 15.015625 -5.15625 C 15.160156 -5.019531 15.222656 -4.859375 15.203125 -4.671875 C 15.160156 -4.003906 14.894531 -3.285156 14.40625 -2.515625 C 13.914062 -1.742188 13.15625 -1.082031 12.125 -0.53125 C 11.101562 0.0078125 9.820312 0.28125 8.28125 0.28125 Z M 8.28125 0.28125 "/></g></g></g><g fill="#f3f4f6" fill-opacity="1"><g transform="translate(741.820649, 408.502382)"><g><path d="M 8.28125 0.28125 C 6.195312 0.28125 4.53125 -0.296875 3.28125 -1.453125 C 2.039062 -2.609375 1.382812 -4.210938 1.3125 -6.265625 L 1.28125 -7.40625 L 1.3125 -8.546875 C 1.382812 -10.585938 2.039062 -12.1875 3.28125 -13.34375 C 4.53125 -14.507812 6.195312 -15.09375 8.28125 -15.09375 C 9.78125 -15.09375 11.046875 -14.828125 12.078125 -14.296875 C 13.117188 -13.765625 13.890625 -13.113281 14.390625 -12.34375 C 14.890625 -11.570312 15.160156 -10.835938 15.203125 -10.140625 C 15.222656 -9.941406 15.160156 -9.773438 15.015625 -9.640625 C 14.867188 -9.515625 14.703125 -9.453125 14.515625 -9.453125 L 11.984375 -9.453125 C 11.773438 -9.453125 11.625 -9.492188 11.53125 -9.578125 C 11.4375 -9.660156 11.34375 -9.816406 11.25 -10.046875 C 10.957031 -10.765625 10.578125 -11.285156 10.109375 -11.609375 C 9.648438 -11.929688 9.0625 -12.09375 8.34375 -12.09375 C 7.375 -12.09375 6.617188 -11.789062 6.078125 -11.1875 C 5.535156 -10.582031 5.242188 -9.648438 5.203125 -8.390625 L 5.1875 -7.34375 L 5.203125 -6.40625 C 5.316406 -3.9375 6.363281 -2.703125 8.34375 -2.703125 C 9.082031 -2.703125 9.675781 -2.859375 10.125 -3.171875 C 10.582031 -3.484375 10.957031 -4.007812 11.25 -4.75 C 11.320312 -4.957031 11.410156 -5.109375 11.515625 -5.203125 C 11.617188 -5.304688 11.773438 -5.359375 11.984375 -5.359375 L 14.515625 -5.359375 C 14.703125 -5.359375 14.867188 -5.289062 15.015625 -5.15625 C 15.160156 -5.019531 15.222656 -4.859375 15.203125 -4.671875 C 15.160156 -4.003906 14.894531 -3.285156 14.40625 -2.515625 C 13.914062 -1.742188 13.15625 -1.082031 12.125 -0.53125 C 11.101562 0.0078125 9.820312 0.28125 8.28125 0.28125 Z M 8.28125 0.28125 "/></g></g></g><g fill="#f3f4f6" fill-opacity="1"><g transform="translate(759.234425, 408.502382)"><g><path d="M 8.453125 0.28125 C 6.210938 0.28125 4.484375 -0.285156 3.265625 -1.421875 C 2.054688 -2.554688 1.40625 -4.132812 1.3125 -6.15625 L 1.28125 -7.40625 L 1.3125 -8.65625 C 1.40625 -10.644531 2.066406 -12.210938 3.296875 -13.359375 C 4.535156 -14.515625 6.253906 -15.09375 8.453125 -15.09375 C 10.640625 -15.09375 12.347656 -14.515625 13.578125 -13.359375 C 14.816406 -12.210938 15.484375 -10.644531 15.578125 -8.65625 C 15.585938 -8.425781 15.59375 -8.007812 15.59375 -7.40625 C 15.59375 -6.789062 15.585938 -6.375 15.578125 -6.15625 C 15.484375 -4.132812 14.828125 -2.554688 13.609375 -1.421875 C 12.390625 -0.285156 10.671875 0.28125 8.453125 0.28125 Z M 8.453125 -2.59375 C 9.460938 -2.59375 10.238281 -2.90625 10.78125 -3.53125 C 11.320312 -4.15625 11.609375 -5.078125 11.640625 -6.296875 C 11.660156 -6.484375 11.671875 -6.851562 11.671875 -7.40625 C 11.671875 -7.957031 11.660156 -8.328125 11.640625 -8.515625 C 11.609375 -9.722656 11.316406 -10.644531 10.765625 -11.28125 C 10.210938 -11.914062 9.441406 -12.234375 8.453125 -12.234375 C 7.453125 -12.234375 6.675781 -11.914062 6.125 -11.28125 C 5.570312 -10.644531 5.273438 -9.722656 5.234375 -8.515625 L 5.203125 -7.40625 L 5.234375 -6.296875 C 5.273438 -5.078125 5.570312 -4.15625 6.125 -3.53125 C 6.675781 -2.90625 7.453125 -2.59375 8.453125 -2.59375 Z M 8.453125 -2.59375 "/></g></g></g><g fill="#f3f4f6" fill-opacity="1"><g transform="translate(777.245719, 408.502382)"><g><path d="M 7.375 0.28125 C 5.625 0.28125 4.242188 -0.285156 3.234375 -1.421875 C 2.234375 -2.554688 1.734375 -4.125 1.734375 -6.125 L 1.734375 -14.125 C 1.734375 -14.332031 1.800781 -14.492188 1.9375 -14.609375 C 2.070312 -14.734375 2.234375 -14.796875 2.421875 -14.796875 L 4.984375 -14.796875 C 5.171875 -14.796875 5.332031 -14.726562 5.46875 -14.59375 C 5.601562 -14.46875 5.671875 -14.3125 5.671875 -14.125 L 5.671875 -6.296875 C 5.671875 -3.960938 6.6875 -2.796875 8.71875 -2.796875 C 9.695312 -2.796875 10.472656 -3.109375 11.046875 -3.734375 C 11.628906 -4.359375 11.921875 -5.210938 11.921875 -6.296875 L 11.921875 -14.125 C 11.921875 -14.332031 11.988281 -14.492188 12.125 -14.609375 C 12.257812 -14.734375 12.421875 -14.796875 12.609375 -14.796875 L 15.140625 -14.796875 C 15.347656 -14.796875 15.515625 -14.734375 15.640625 -14.609375 C 15.765625 -14.492188 15.828125 -14.332031 15.828125 -14.125 L 15.828125 -0.6875 C 15.828125 -0.5 15.765625 -0.335938 15.640625 -0.203125 C 15.515625 -0.0664062 15.347656 0 15.140625 0 L 12.78125 0 C 12.59375 0 12.429688 -0.0664062 12.296875 -0.203125 C 12.160156 -0.335938 12.09375 -0.5 12.09375 -0.6875 L 12.09375 -1.84375 C 11.050781 -0.425781 9.476562 0.28125 7.375 0.28125 Z M 7.375 0.28125 "/></g></g></g><g fill="#f3f4f6" fill-opacity="1"><g transform="translate(796.082144, 408.502382)"><g><path d="M 2.5625 0 C 2.375 0 2.210938 -0.0664062 2.078125 -0.203125 C 1.941406 -0.335938 1.875 -0.5 1.875 -0.6875 L 1.875 -14.125 C 1.875 -14.332031 1.941406 -14.492188 2.078125 -14.609375 C 2.210938 -14.734375 2.375 -14.796875 2.5625 -14.796875 L 4.921875 -14.796875 C 5.128906 -14.796875 5.296875 -14.734375 5.421875 -14.609375 C 5.546875 -14.492188 5.609375 -14.332031 5.609375 -14.125 L 5.609375 -12.953125 C 6.765625 -14.378906 8.347656 -15.09375 10.359375 -15.09375 C 12.109375 -15.09375 13.492188 -14.519531 14.515625 -13.375 C 15.546875 -12.238281 16.0625 -10.675781 16.0625 -8.6875 L 16.0625 -0.6875 C 16.0625 -0.5 16 -0.335938 15.875 -0.203125 C 15.75 -0.0664062 15.582031 0 15.375 0 L 12.8125 0 C 12.625 0 12.460938 -0.0664062 12.328125 -0.203125 C 12.191406 -0.335938 12.125 -0.5 12.125 -0.6875 L 12.125 -8.515625 C 12.125 -9.609375 11.851562 -10.460938 11.3125 -11.078125 C 10.769531 -11.703125 10 -12.015625 9 -12.015625 C 8.03125 -12.015625 7.25 -11.703125 6.65625 -11.078125 C 6.070312 -10.453125 5.78125 -9.597656 5.78125 -8.515625 L 5.78125 -0.6875 C 5.78125 -0.5 5.71875 -0.335938 5.59375 -0.203125 C 5.46875 -0.0664062 5.300781 0 5.09375 0 Z M 2.5625 0 "/></g></g></g><g fill="#f3f4f6" fill-opacity="1"><g transform="translate(814.83315, 408.502382)"><g><path d="M 8.59375 0 C 6.863281 0 5.5625 -0.445312 4.6875 -1.34375 C 3.820312 -2.25 3.390625 -3.578125 3.390625 -5.328125 L 3.390625 -11.75 L 1.140625 -11.75 C 0.953125 -11.75 0.789062 -11.816406 0.65625 -11.953125 C 0.519531 -12.085938 0.453125 -12.25 0.453125 -12.4375 L 0.453125 -14.125 C 0.453125 -14.3125 0.519531 -14.46875 0.65625 -14.59375 C 0.789062 -14.726562 0.953125 -14.796875 1.140625 -14.796875 L 3.390625 -14.796875 L 3.390625 -19.53125 C 3.390625 -19.738281 3.453125 -19.90625 3.578125 -20.03125 C 3.710938 -20.15625 3.878906 -20.21875 4.078125 -20.21875 L 6.4375 -20.21875 C 6.644531 -20.21875 6.8125 -20.15625 6.9375 -20.03125 C 7.0625 -19.90625 7.125 -19.738281 7.125 -19.53125 L 7.125 -14.796875 L 10.671875 -14.796875 C 10.859375 -14.796875 11.019531 -14.726562 11.15625 -14.59375 C 11.289062 -14.46875 11.359375 -14.3125 11.359375 -14.125 L 11.359375 -12.4375 C 11.359375 -12.25 11.289062 -12.085938 11.15625 -11.953125 C 11.019531 -11.816406 10.859375 -11.75 10.671875 -11.75 L 7.125 -11.75 L 7.125 -5.640625 C 7.125 -4.816406 7.265625 -4.195312 7.546875 -3.78125 C 7.828125 -3.363281 8.289062 -3.15625 8.9375 -3.15625 L 10.9375 -3.15625 C 11.144531 -3.15625 11.304688 -3.09375 11.421875 -2.96875 C 11.546875 -2.851562 11.609375 -2.691406 11.609375 -2.484375 L 11.609375 -0.6875 C 11.609375 -0.5 11.546875 -0.335938 11.421875 -0.203125 C 11.304688 -0.0664062 11.144531 0 10.9375 0 Z M 8.59375 0 "/></g></g></g><path stroke-linecap="round" transform="matrix(0.529537, -0.531122, 0.531122, 0.529537, 932.207119, 444.77695)" fill="none" stroke-linejoin="miter" d="M 4.739816 4.636713 C 40.149887 19.800343 75.564212 19.786946 110.975425 4.596512 " stroke="#ffffff" stroke-width="7" stroke-opacity="1" stroke-miterlimit="4"/></svg>